<svg width="26" height="26" viewBox="0 0 26 26" fill="none" xmlns="http://www.w3.org/2000/svg">
<rect width="26" height="26" rx="6" fill="white"/>
<path d="M19.6481 17.0048C22.0158 13.4533 21.0561 8.6549 17.5046 6.28724C13.9531 3.91958 9.15468 4.87928 6.78703 8.43077C4.41937 11.9823 5.37906 16.7807 8.93056 19.1484C12.4821 21.516 17.2805 20.5563 19.6481 17.0048Z" fill="#CD2E3A"/>
<path d="M6.78703 8.43077C6.21853 9.28352 6.01207 10.3272 6.21307 11.3321C6.41406 12.3371 7.00605 13.2211 7.85879 13.7896C8.71153 14.3581 9.75519 14.5645 10.7602 14.3635C11.7651 14.1625 12.6491 13.5705 13.2176 12.7178C13.7861 11.8651 14.67 11.2731 15.675 11.0721C16.68 10.8711 17.7236 11.0775 18.5764 11.646C19.4291 12.2145 20.0211 13.0985 20.2221 14.1035C20.4231 15.1084 20.2166 16.1521 19.6481 17.0048C18.5111 18.7103 16.7432 19.8943 14.7333 20.2963C12.7233 20.6983 10.636 20.2853 8.93056 19.1484C7.22507 18.0114 6.0411 16.2434 5.63911 14.2335C5.23712 12.2236 5.65004 10.1363 6.78703 8.43077Z" fill="#0047A0"/>
</svg>
