<svg width="136" height="26" viewBox="0 0 136 26" fill="none" xmlns="http://www.w3.org/2000/svg">
<path d="M14.6773 19.7581C14.8746 17.18 15.0961 14.6019 15.2911 12.0237C15.4018 10.447 14.9324 9.96318 13.8901 9.46729C13.0355 9.07733 12.1978 8.65847 11.3697 8.21555C10.5104 7.76781 9.99282 7.07212 9.72562 6.16701V5.79149C10.0386 5.7289 10.1348 5.61576 10.1348 5.30764C10.1348 3.62018 10.1397 1.93273 10.1348 0.245279C10.1348 0.112882 10.0265 0.00696499 9.89653 0.00455779C8.40166 -0.00025663 6.90437 -0.00266384 5.4095 0.00455779C5.2771 0.00455779 5.17118 0.112882 5.16878 0.245279C5.16637 1.93273 5.16878 3.62018 5.16878 5.30764C5.16878 5.61817 5.26507 5.7289 5.578 5.79149V6.16701C5.35895 6.75918 5.11582 7.41395 4.58383 7.79428C3.84722 8.27813 3.08173 8.70421 2.28013 9.07011C1.33409 9.501 0.147341 9.89818 0.0342021 11.0994C-0.0283853 11.5231 0.0077228 11.9395 0.0414237 12.3608C0.135305 13.5692 0.224372 14.78 0.32066 15.9884C0.450649 17.6253 0.585453 19.2622 0.713035 20.9015C0.821359 22.2736 0.920055 23.6458 1.03319 25.0179C1.07893 25.5739 1.55074 25.9976 2.11162 26C5.80428 26 4.7427 26 8.43536 26L14.6748 19.7605L14.6773 19.7581Z" fill="white"/>
<path d="M8.43787 25.9977C8.43787 24.4498 8.42824 22.902 8.43787 21.3566C8.44269 20.6874 9.03245 19.9917 9.68481 19.8256C9.8822 19.775 10.082 19.751 10.2866 19.751C11.7502 19.7558 13.2138 19.7558 14.6774 19.7558C14.5498 20.4515 14.2465 21.0725 13.7578 21.5732C12.6023 22.76 11.43 23.9323 10.2433 25.0853C9.74739 25.5692 9.13115 25.8677 8.44028 25.9929L8.43787 25.9977Z" fill="#E6E6DD"/>
<path d="M33.7566 18.3093C33.7566 19.1865 33.5653 19.9521 33.1826 20.6114C32.8 21.2706 32.2366 21.7863 31.5032 22.1532C30.7645 22.52 29.861 22.7061 28.7875 22.7061H23L23.1382 14.9386L23 7.01685H28.458C29.4253 7.01685 30.249 7.17103 30.9346 7.47939C31.6202 7.78775 32.1463 8.23435 32.513 8.8298C32.8797 9.41994 33.0657 10.1324 33.0657 10.9618C33.0657 11.5306 32.9488 12.0782 32.7096 12.6099C32.4705 13.1416 32.0825 13.6041 31.5458 14.0028C31.009 14.4016 30.2915 14.7046 29.404 14.9013C29.0479 14.9492 28.6493 15.0024 28.2082 15.0608C27.7618 15.1246 27.241 15.1725 26.6404 15.2097C26.0399 15.2469 25.3171 15.2682 24.4774 15.2682V13.9763C24.7378 13.9763 25.0089 13.9763 25.2852 13.9869C25.5616 13.9922 25.8539 14.0028 26.1621 14.0082C26.4704 14.0135 26.7893 14.0188 27.1188 14.0188H28.1445C28.8513 14.0188 29.4465 13.9284 29.9301 13.7423C30.4138 13.5563 30.7858 13.2745 31.0462 12.8917C31.3066 12.5089 31.4395 12.0091 31.4395 11.3924C31.4395 10.6534 31.1897 10.0633 30.6901 9.61666C30.1905 9.17006 29.2871 8.94677 27.985 8.94677C27.7565 8.94677 27.4589 8.94677 27.0975 8.9574C26.7361 8.96803 26.3588 8.96803 25.9549 8.96803C25.551 8.96803 25.1949 8.96803 24.8707 8.97867C24.5465 8.9893 24.318 8.9893 24.1798 8.9893L24.892 8.22903V21.2015L24.3871 20.6486C24.9079 20.6805 25.5138 20.7071 26.2047 20.7283C26.8955 20.7496 27.5705 20.7602 28.2295 20.7602C29.3827 20.7602 30.2756 20.5316 30.9133 20.0691C31.5511 19.6065 31.8699 18.8888 31.8699 17.9052C31.8699 17.23 31.6946 16.7143 31.3491 16.3634C31.0037 16.0125 30.5573 15.7626 30.0152 15.6244C29.4678 15.4862 28.8885 15.4171 28.2773 15.4171H27.5492C27.3101 15.4171 27.0816 15.4171 26.8583 15.4277C26.6351 15.433 26.4066 15.4383 26.1675 15.4383C25.9283 15.4383 25.6891 15.4383 25.4394 15.449C25.1949 15.4543 24.9345 15.4596 24.6581 15.4596V14.492C24.9983 14.476 25.3224 14.4707 25.636 14.4707C25.9496 14.4707 26.3322 14.4707 26.7893 14.4601C27.241 14.4548 27.7618 14.4494 28.3464 14.4494C28.8513 14.4494 29.4199 14.5079 30.0417 14.6249C30.6635 14.7419 31.2535 14.9386 31.8168 15.2257C32.3748 15.5128 32.8425 15.9009 33.2092 16.4006C33.5759 16.9004 33.7619 17.5331 33.7619 18.304L33.7566 18.3093Z" fill="white"/>
<path d="M41.2606 9.80811C42.5361 9.80811 43.6256 10.0474 44.5344 10.5205C45.4432 10.999 46.1341 11.6742 46.6177 12.5621C47.1013 13.4447 47.3458 14.5239 47.3458 15.7999C47.3458 16.9961 47.1704 18.0435 46.825 18.9367C46.4795 19.8299 46.0065 20.5689 45.406 21.159C44.8054 21.7492 44.1252 22.1904 43.3546 22.4829C42.584 22.7753 41.7815 22.9188 40.9365 22.9188C39.6769 22.9188 38.5928 22.6796 37.6787 22.2064C36.7646 21.7279 36.063 21.0421 35.5688 20.1436C35.0745 19.2451 34.8301 18.1658 34.8301 16.9058C34.8301 15.6457 35.0001 14.6622 35.335 13.769C35.6751 12.8758 36.1428 12.1421 36.738 11.5573C37.3385 10.9724 38.0294 10.5365 38.8107 10.2441C39.5919 9.95165 40.4103 9.80811 41.2553 9.80811H41.2606ZM40.963 11.6955C39.948 11.6955 39.1136 11.8763 38.4493 12.2378C37.7903 12.5993 37.3066 13.1257 36.9984 13.8168C36.6902 14.508 36.536 15.3586 36.536 16.3741C36.536 17.3098 36.6955 18.1286 37.0197 18.8304C37.3438 19.5322 37.8434 20.0691 38.5184 20.4572C39.1933 20.84 40.0915 21.0314 41.2128 21.0314C42.2279 21.0314 43.0623 20.8507 43.7266 20.4891C44.3856 20.1276 44.8692 19.5906 45.1775 18.8782C45.4857 18.1658 45.6398 17.2992 45.6398 16.2837C45.6398 15.348 45.4804 14.5346 45.1668 13.8434C44.8533 13.1522 44.3537 12.6206 43.6681 12.2537C42.9826 11.8869 42.0844 11.7008 40.963 11.7008V11.6955Z" fill="white"/>
<path d="M50.4549 9.98882H55.5675V11.8762H47.5957V10.8395L49.6471 10.1696L51.3956 7.6123H51.4859L51.3478 11.4828V18.5592C51.3478 19.2344 51.4328 19.7554 51.6029 20.1169C51.7729 20.4785 52.0333 20.7177 52.3841 20.8453C52.7348 20.9676 53.176 21.0314 53.6968 21.0314C54.0954 21.0314 54.4568 21.0101 54.7809 20.9623C55.1051 20.9144 55.3974 20.8612 55.6578 20.8028V22.6476C55.4293 22.7221 55.153 22.7912 54.8394 22.8443C54.5258 22.8975 54.1273 22.9241 53.6543 22.9241C52.7774 22.9241 52.0386 22.7912 51.4328 22.52C50.8269 22.2542 50.3752 21.8076 50.0723 21.1856C49.7693 20.5635 49.6312 19.7129 49.6471 18.6389L49.764 10.9671L50.4549 9.99945V9.98882Z" fill="white"/>
<path d="M59.9998 9.98882H65.1124V11.8762H57.1406V10.8395L59.192 10.1696L60.9405 7.6123H61.0309L60.8927 11.4828V18.5592C60.8927 19.2344 60.9777 19.7554 61.1478 20.1169C61.3178 20.4785 61.5783 20.7177 61.929 20.8453C62.2798 20.9676 62.7209 21.0314 63.2417 21.0314C63.6403 21.0314 64.0017 21.0101 64.3259 20.9623C64.65 20.9144 64.9423 20.8612 65.2028 20.8028V22.6476C64.9742 22.7221 64.6979 22.7912 64.3843 22.8443C64.0708 22.8975 63.6722 22.9241 63.1992 22.9241C62.3223 22.9241 61.5836 22.7912 60.9777 22.52C60.3719 22.2542 59.9201 21.8076 59.6172 21.1856C59.3143 20.5635 59.1761 19.7129 59.192 18.6389L59.309 10.9671L59.9998 9.99945V9.98882Z" fill="white"/>
<path d="M68.9599 12.9181L69.1671 22.7113H67.1635L67.3017 13.168L66.9775 5.07617H68.9599V12.9128V12.9181Z" fill="white"/>
<path d="M81.6299 19.8985V21.8124C81.0134 22.0889 80.3066 22.3388 79.5094 22.5621C78.7122 22.7854 77.8513 22.9024 76.9319 22.9183C75.6564 22.9183 74.5616 22.6737 73.6475 22.1793C72.7334 21.6902 72.0372 20.9671 71.5642 20.0261C71.0859 19.0797 70.8521 17.9101 70.8521 16.5118C70.8521 15.3422 71.0327 14.332 71.3941 13.4814C71.7555 12.6307 72.2285 11.9342 72.8237 11.3972C73.4136 10.8603 74.0833 10.4562 74.8273 10.1851C75.5713 9.91392 76.3419 9.78101 77.1444 9.78101C78.2817 9.78101 79.2065 9.9724 79.9186 10.3552C80.6308 10.738 81.1569 11.2962 81.497 12.0246C81.8372 12.753 82.0019 13.6515 82.0019 14.7095C82.0019 14.8956 82.0019 15.087 81.9913 15.2837C81.9807 15.4857 81.9647 15.6931 81.9328 15.9057L71.6811 15.8366L71.7289 14.6829L81.3376 14.5925L80.4873 15.2358C80.5457 14.3745 80.4235 13.6834 80.1206 13.1624C79.8123 12.6413 79.3606 12.2585 78.7601 12.0193C78.1595 11.78 77.4527 11.6631 76.6396 11.6631C75.7042 11.6631 74.9283 11.8226 74.3224 12.1363C73.7166 12.4499 73.2648 12.9231 72.9725 13.5558C72.6802 14.1885 72.5368 14.97 72.5368 15.9057C72.5368 16.9371 72.6962 17.8356 73.0097 18.6012C73.3233 19.3721 73.8069 19.9623 74.4606 20.3876C75.1143 20.8076 75.9593 21.0203 77.0063 21.0203C77.8353 21.0203 78.6538 20.9139 79.4616 20.696C80.2694 20.4833 80.9922 20.2122 81.6405 19.8878L81.6299 19.8985Z" fill="white"/>
<path d="M100.236 22.8973L88.5334 9.18577L89.7983 8.30853L89.9843 22.7112H88.0977L88.2146 6.96875H88.9055L100.491 20.4995L99.5239 20.7972L99.2263 7.0166H101.092L100.953 22.8973H100.241H100.236Z" fill="white"/>
<path d="M109.298 9.80811C110.573 9.80811 111.663 10.0474 112.572 10.5205C113.48 10.999 114.171 11.6742 114.655 12.5621C115.138 13.4447 115.383 14.5239 115.383 15.7999C115.383 16.9961 115.208 18.0435 114.862 18.9367C114.517 19.8299 114.044 20.5689 113.443 21.159C112.843 21.7492 112.162 22.1904 111.392 22.4829C110.621 22.7753 109.819 22.9188 108.974 22.9188C107.714 22.9188 106.63 22.6796 105.716 22.2064C104.802 21.7279 104.1 21.0421 103.606 20.1436C103.112 19.2451 102.867 18.1658 102.867 16.9058C102.867 15.6457 103.037 14.6622 103.372 13.769C103.712 12.8758 104.18 12.1421 104.775 11.5573C105.376 10.9724 106.067 10.5365 106.848 10.2441C107.629 9.95165 108.447 9.80811 109.292 9.80811H109.298ZM109 11.6955C107.985 11.6955 107.151 11.8763 106.486 12.2378C105.827 12.5993 105.344 13.1257 105.036 13.8168C104.727 14.508 104.573 15.3586 104.573 16.3741C104.573 17.3098 104.733 18.1286 105.057 18.8304C105.381 19.5322 105.881 20.0691 106.555 20.4572C107.23 20.84 108.129 21.0314 109.25 21.0314C110.265 21.0314 111.099 20.8507 111.764 20.4891C112.423 20.1276 112.906 19.5906 113.215 18.8782C113.523 18.1658 113.677 17.2992 113.677 16.2837C113.677 15.348 113.517 14.5346 113.204 13.8434C112.89 13.1522 112.391 12.6206 111.705 12.2537C111.02 11.8869 110.122 11.7008 109 11.7008V11.6955Z" fill="white"/>
<path d="M118.491 9.98882H123.604V11.8762H115.632V10.8395L117.683 10.1696L119.432 7.6123H119.522L119.384 11.4828V18.5592C119.384 19.2344 119.469 19.7554 119.639 20.1169C119.809 20.4785 120.069 20.7177 120.42 20.8453C120.771 20.9676 121.212 21.0314 121.733 21.0314C122.131 21.0314 122.493 21.0101 122.817 20.9623C123.141 20.9144 123.434 20.8612 123.694 20.8028V22.6476C123.465 22.7221 123.189 22.7912 122.876 22.8443C122.562 22.8975 122.163 22.9241 121.69 22.9241C120.813 22.9241 120.075 22.7912 119.469 22.52C118.863 22.2542 118.411 21.8076 118.108 21.1856C117.805 20.5635 117.667 19.7129 117.683 18.6389L117.8 10.9671L118.491 9.99945V9.98882Z" fill="white"/>
<path d="M135.514 19.8985V21.8125C134.897 22.0889 134.19 22.3388 133.393 22.5621C132.596 22.7854 131.735 22.9024 130.816 22.9183C129.54 22.9183 128.445 22.6737 127.531 22.1793C126.617 21.6902 125.921 20.9671 125.448 20.0261C124.97 19.0797 124.736 17.9101 124.736 16.5118C124.736 15.3422 124.917 14.332 125.278 13.4814C125.639 12.6307 126.112 11.9342 126.708 11.3972C127.297 10.8603 127.967 10.4562 128.711 10.1851C129.455 9.91392 130.226 9.78101 131.028 9.78101C132.166 9.78101 133.09 9.9724 133.802 10.3552C134.515 10.738 135.041 11.2962 135.381 12.0246C135.721 12.753 135.886 13.6515 135.886 14.7095C135.886 14.8956 135.886 15.087 135.875 15.2837C135.864 15.4857 135.849 15.6931 135.817 15.9057L125.565 15.8366L125.613 14.6829L135.221 14.5925L134.371 15.2358C134.43 14.3745 134.307 13.6834 134.004 13.1624C133.696 12.6413 133.244 12.2585 132.644 12.0193C132.043 11.78 131.336 11.6631 130.523 11.6631C129.588 11.6631 128.812 11.8226 128.206 12.1363C127.6 12.4499 127.149 12.9231 126.856 13.5558C126.564 14.1885 126.421 14.97 126.421 15.9057C126.421 16.9371 126.58 17.8356 126.894 18.6012C127.207 19.3721 127.691 19.9623 128.344 20.3876C128.998 20.8076 129.843 21.0203 130.89 21.0203C131.719 21.0203 132.538 20.9139 133.345 20.696C134.153 20.4833 134.876 20.2122 135.524 19.8878L135.514 19.8985Z" fill="white"/>
</svg>
