<svg width="150" height="26" viewBox="0 0 150 26" fill="none" xmlns="http://www.w3.org/2000/svg">
<path d="M14.6773 19.7581C14.8746 17.18 15.0961 14.6019 15.2911 12.0237C15.4018 10.447 14.9324 9.96318 13.8901 9.46729C13.0355 9.07733 12.1978 8.65847 11.3697 8.21555C10.5104 7.76781 9.99282 7.07212 9.72562 6.16701V5.79149C10.0386 5.7289 10.1348 5.61576 10.1348 5.30764C10.1348 3.62018 10.1397 1.93273 10.1348 0.245279C10.1348 0.112882 10.0265 0.00696499 9.89653 0.00455779C8.40166 -0.00025663 6.90437 -0.00266384 5.4095 0.00455779C5.2771 0.00455779 5.17118 0.112882 5.16878 0.245279C5.16637 1.93273 5.16878 3.62018 5.16878 5.30764C5.16878 5.61817 5.26507 5.7289 5.578 5.79149V6.16701C5.35895 6.75918 5.11582 7.41395 4.58383 7.79428C3.84722 8.27813 3.08173 8.70421 2.28013 9.07011C1.33409 9.501 0.147341 9.89818 0.0342021 11.0994C-0.0283853 11.5231 0.0077228 11.9395 0.0414237 12.3608C0.135305 13.5692 0.224372 14.78 0.32066 15.9884C0.450649 17.6253 0.585453 19.2622 0.713035 20.9015C0.821359 22.2736 0.920055 23.6458 1.03319 25.0179C1.07893 25.5739 1.55074 25.9976 2.11162 26C5.80428 26 4.7427 26 8.43536 26L14.6748 19.7605L14.6773 19.7581Z" fill="white"/>
<path d="M8.43787 25.9977C8.43787 24.4498 8.42824 22.902 8.43787 21.3566C8.44269 20.6874 9.03245 19.9917 9.68481 19.8256C9.8822 19.775 10.082 19.751 10.2866 19.751C11.7502 19.7558 13.2138 19.7558 14.6774 19.7558C14.5498 20.4515 14.2465 21.0725 13.7578 21.5732C12.6023 22.76 11.43 23.9323 10.2433 25.0853C9.74739 25.5692 9.13115 25.8677 8.44028 25.9929L8.43787 25.9977Z" fill="#E6E6DD"/>
<path d="M35.361 17.8291C35.361 18.8122 35.1466 19.6701 34.7178 20.4089C34.289 21.1476 33.6577 21.7255 32.8359 22.1366C32.0081 22.5477 30.9956 22.7562 29.7926 22.7562H23.3071L23.462 14.0519L23.3071 5.1748H29.4234C30.5073 5.1748 31.4304 5.34758 32.1986 5.69313C32.9669 6.03868 33.5565 6.53914 33.9674 7.20641C34.3783 7.86772 34.5868 8.66607 34.5868 9.59548C34.5868 10.233 34.4558 10.8466 34.1878 11.4424C33.9198 12.0382 33.485 12.5565 32.8835 13.0033C32.282 13.4502 31.478 13.7898 30.4835 14.0102C30.0844 14.0638 29.6378 14.1234 29.1435 14.1889C28.6432 14.2604 28.0596 14.314 27.3866 14.3557C26.7137 14.3975 25.9037 14.4213 24.9627 14.4213V12.9735C25.2546 12.9735 25.5583 12.9735 25.868 12.9855C26.1777 12.9914 26.5052 13.0033 26.8506 13.0093C27.196 13.0152 27.5534 13.0212 27.9226 13.0212H29.072C29.8641 13.0212 30.5311 12.9199 31.0731 12.7114C31.615 12.5029 32.0319 12.1871 32.3237 11.7582C32.6155 11.3292 32.7644 10.7692 32.7644 10.0781C32.7644 9.24993 32.4845 8.58861 31.9247 8.08816C31.3649 7.58771 30.3524 7.33748 28.8934 7.33748C28.6373 7.33748 28.3038 7.33748 27.8988 7.3494C27.4938 7.36131 27.071 7.36131 26.6184 7.36131C26.1658 7.36131 25.7667 7.36131 25.4035 7.37323C25.0402 7.38514 24.7841 7.38514 24.6292 7.38514L25.4273 6.53318V21.0702L24.8615 20.4506C25.4451 20.4863 26.1241 20.5161 26.8983 20.5399C27.6725 20.5638 28.4288 20.5757 29.1673 20.5757C30.4596 20.5757 31.4602 20.3195 32.1748 19.8012C32.8895 19.2828 33.2468 18.4785 33.2468 17.3763C33.2468 16.6197 33.0503 16.0418 32.6632 15.6486C32.2761 15.2554 31.7758 14.9754 31.1683 14.8205C30.5549 14.6656 29.9058 14.5881 29.2209 14.5881H28.405C28.137 14.5881 27.8809 14.5881 27.6308 14.6C27.3807 14.606 27.1246 14.6119 26.8566 14.6119C26.5886 14.6119 26.3206 14.6119 26.0407 14.6238C25.7667 14.6298 25.4749 14.6358 25.1652 14.6358V13.5514C25.5464 13.5336 25.9097 13.5276 26.261 13.5276C26.6124 13.5276 27.0412 13.5276 27.5534 13.5157C28.0596 13.5097 28.6432 13.5038 29.2983 13.5038C29.8641 13.5038 30.5013 13.5693 31.1981 13.7004C31.8949 13.8315 32.556 14.0519 33.1872 14.3736C33.8126 14.6953 34.3366 15.1303 34.7476 15.6903C35.1585 16.2503 35.3669 16.9593 35.3669 17.8232L35.361 17.8291Z" fill="white"/>
<path d="M43.7701 8.30273C45.1994 8.30273 46.4203 8.57083 47.4386 9.10108C48.457 9.63728 49.2312 10.3939 49.7732 11.3889C50.3151 12.3779 50.5891 13.5873 50.5891 15.0172C50.5891 16.3577 50.3926 17.5313 50.0054 18.5322C49.6183 19.5332 49.0883 20.3613 48.4153 21.0226C47.7424 21.6839 46.9801 22.1784 46.1165 22.5061C45.253 22.8338 44.3537 22.9946 43.4068 22.9946C41.9953 22.9946 40.7804 22.7265 39.7561 22.1963C38.7318 21.6601 37.9456 20.8915 37.3918 19.8847C36.8379 18.8778 36.564 17.6684 36.564 16.2564C36.564 14.8444 36.7545 13.7422 37.1297 12.7413C37.5109 11.7404 38.035 10.9182 38.702 10.2628C39.3749 9.60749 40.1492 9.11895 41.0246 8.79127C41.9001 8.46359 42.8172 8.30273 43.7641 8.30273H43.7701ZM43.4366 10.4177C42.2991 10.4177 41.3641 10.6203 40.6196 11.0254C39.8812 11.4306 39.3392 12.0204 38.9938 12.7949C38.6484 13.5694 38.4757 14.5227 38.4757 15.6606C38.4757 16.7092 38.6543 17.6267 39.0176 18.4131C39.3809 19.1995 39.9407 19.8013 40.6971 20.2362C41.4534 20.6651 42.4599 20.8796 43.7165 20.8796C44.854 20.8796 45.789 20.677 46.5334 20.2719C47.2719 19.8668 47.8138 19.2651 48.1593 18.4667C48.5047 17.6684 48.6774 16.6973 48.6774 15.5593C48.6774 14.5107 48.4987 13.5992 48.1473 12.8247C47.796 12.0502 47.2362 11.4544 46.4679 11.0433C45.6996 10.6322 44.6932 10.4237 43.4366 10.4237V10.4177Z" fill="white"/>
<path d="M54.0732 8.50493H59.8023V10.6199H50.8691V9.45817L53.168 8.70749L55.1273 5.8418H55.2285L55.0737 10.1791V18.1089C55.0737 18.8655 55.169 19.4494 55.3596 19.8545C55.5501 20.2596 55.842 20.5277 56.235 20.6707C56.6281 20.8077 57.1224 20.8792 57.706 20.8792C58.1527 20.8792 58.5576 20.8554 58.9209 20.8018C59.2842 20.7482 59.6118 20.6886 59.9036 20.6231V22.6904C59.6475 22.7738 59.3378 22.8513 58.9864 22.9108C58.6351 22.9704 58.1884 23.0002 57.6584 23.0002C56.6757 23.0002 55.8479 22.8513 55.169 22.5474C54.4901 22.2495 53.9838 21.7491 53.6444 21.052C53.3049 20.355 53.1501 19.4017 53.168 18.1982L53.299 9.60116L54.0732 8.51684V8.50493Z" fill="white"/>
<path d="M64.7695 8.50493H70.4986V10.6199H61.5654V9.45817L63.8642 8.70749L65.8236 5.8418H65.9248L65.77 10.1791V18.1089C65.77 18.8655 65.8653 19.4494 66.0559 19.8545C66.2464 20.2596 66.5382 20.5277 66.9313 20.6707C67.3244 20.8077 67.8187 20.8792 68.4023 20.8792C68.849 20.8792 69.2539 20.8554 69.6172 20.8018C69.9805 20.7482 70.3081 20.6886 70.5999 20.6231V22.6904C70.3438 22.7738 70.0341 22.8513 69.6827 22.9108C69.3314 22.9704 68.8847 23.0002 68.3547 23.0002C67.372 23.0002 66.5442 22.8513 65.8653 22.5474C65.1864 22.2495 64.6801 21.7491 64.3407 21.052C64.0012 20.355 63.8464 19.4017 63.8642 18.1982L63.9953 9.60116L64.7695 8.51684V8.50493Z" fill="white"/>
<path d="M74.8103 11.7877L75.0425 22.762H72.7973L72.9522 12.0677L72.5889 3H74.8103V11.7818V11.7877Z" fill="white"/>
<path d="M89.0079 19.6101V21.7549C88.317 22.0647 87.5249 22.3447 86.6316 22.595C85.7383 22.8452 84.7735 22.9763 83.7432 22.9941C82.3139 22.9941 81.0871 22.7201 80.0628 22.166C79.0384 21.6179 78.2582 20.8076 77.7282 19.7531C77.1922 18.6926 76.9302 17.3819 76.9302 15.815C76.9302 14.5043 77.1327 13.3723 77.5376 12.4191C77.9426 11.4658 78.4726 10.6854 79.1397 10.0836C79.8007 9.48189 80.5511 9.0291 81.3849 8.72525C82.2186 8.42141 83.0822 8.27246 83.9814 8.27246C85.2559 8.27246 86.2922 8.48694 87.0902 8.9159C87.8882 9.34486 88.4778 9.97043 88.859 10.7866C89.2401 11.6029 89.4247 12.6097 89.4247 13.7953C89.4247 14.0038 89.4247 14.2183 89.4128 14.4388C89.4009 14.6652 89.3831 14.8975 89.3473 15.1358L77.8592 15.0584L77.9128 13.7655L88.6803 13.6643L87.7274 14.3851C87.7929 13.42 87.656 12.6455 87.3165 12.0616C86.9711 11.4777 86.4649 11.0488 85.7919 10.7807C85.1189 10.5126 84.3269 10.3815 83.4157 10.3815C82.3675 10.3815 81.498 10.5602 80.8191 10.9118C80.1402 11.2633 79.634 11.7935 79.3064 12.5025C78.9789 13.2115 78.8181 14.0873 78.8181 15.1358C78.8181 16.2916 78.9967 17.2985 79.3481 18.1564C79.6995 19.0203 80.2414 19.6816 80.9739 20.1582C81.7065 20.6289 82.6534 20.8672 83.8266 20.8672C84.7557 20.8672 85.6728 20.7481 86.578 20.5038C87.4833 20.2655 88.2932 19.9616 89.0198 19.5982L89.0079 19.6101Z" fill="white"/>
<path d="M109.858 22.9706L96.7442 7.60549L98.1616 6.62246L98.3701 22.7621H96.2559L96.3869 5.12109H97.1611L110.144 20.2837L109.06 20.6173L108.727 5.17471H110.817L110.662 22.9706H109.864H109.858Z" fill="white"/>
<path d="M120.012 8.30273C121.442 8.30273 122.662 8.57083 123.681 9.10108C124.699 9.63728 125.473 10.3939 126.015 11.3889C126.557 12.3779 126.831 13.5873 126.831 15.0172C126.831 16.3577 126.635 17.5313 126.248 18.5322C125.861 19.5332 125.33 20.3613 124.658 21.0226C123.985 21.6839 123.222 22.1784 122.359 22.5061C121.495 22.8338 120.596 22.9946 119.649 22.9946C118.238 22.9946 117.023 22.7265 115.998 22.1963C114.974 21.6601 114.188 20.8915 113.634 19.8847C113.08 18.8778 112.806 17.6684 112.806 16.2564C112.806 14.8444 112.997 13.7422 113.372 12.7413C113.753 11.7404 114.277 10.9182 114.944 10.2628C115.617 9.60749 116.391 9.11895 117.267 8.79127C118.142 8.46359 119.059 8.30273 120.006 8.30273H120.012ZM119.679 10.4177C118.541 10.4177 117.606 10.6203 116.862 11.0254C116.123 11.4306 115.581 12.0204 115.236 12.7949C114.891 13.5694 114.718 14.5227 114.718 15.6606C114.718 16.7092 114.897 17.6267 115.26 18.4131C115.623 19.1995 116.183 19.8013 116.939 20.2362C117.696 20.6651 118.702 20.8796 119.959 20.8796C121.096 20.8796 122.031 20.677 122.776 20.2719C123.514 19.8668 124.056 19.2651 124.401 18.4667C124.747 17.6684 124.92 16.6973 124.92 15.5593C124.92 14.5107 124.741 13.5992 124.39 12.8247C124.038 12.0502 123.478 11.4544 122.71 11.0433C121.942 10.6322 120.935 10.4237 119.679 10.4237V10.4177Z" fill="white"/>
<path d="M130.315 8.50493H136.044V10.6199H127.111V9.45817L129.41 8.70749L131.369 5.8418H131.47L131.315 10.1791V18.1089C131.315 18.8655 131.411 19.4494 131.601 19.8545C131.792 20.2596 132.084 20.5277 132.477 20.6707C132.87 20.8077 133.364 20.8792 133.948 20.8792C134.394 20.8792 134.799 20.8554 135.163 20.8018C135.526 20.7482 135.853 20.6886 136.145 20.6231V22.6904C135.889 22.7738 135.579 22.8513 135.228 22.9108C134.877 22.9704 134.43 23.0002 133.9 23.0002C132.917 23.0002 132.09 22.8513 131.411 22.5474C130.732 22.2495 130.226 21.7491 129.886 21.052C129.547 20.355 129.392 19.4017 129.41 18.1982L129.541 9.60116L130.315 8.51684V8.50493Z" fill="white"/>
<path d="M149.39 19.6101V21.7549C148.699 22.0647 147.907 22.3447 147.014 22.595C146.121 22.8452 145.156 22.9763 144.126 22.9941C142.696 22.9941 141.469 22.7201 140.445 22.166C139.421 21.6179 138.641 20.8076 138.111 19.7531C137.575 18.6926 137.312 17.3819 137.312 15.815C137.312 14.5043 137.515 13.3723 137.92 12.4191C138.325 11.4658 138.855 10.6854 139.522 10.0836C140.183 9.48189 140.933 9.0291 141.767 8.72525C142.601 8.42141 143.465 8.27246 144.364 8.27246C145.638 8.27246 146.674 8.48694 147.473 8.9159C148.271 9.34486 148.86 9.97043 149.241 10.7866C149.622 11.6029 149.807 12.6097 149.807 13.7953C149.807 14.0038 149.807 14.2183 149.795 14.4388C149.783 14.6652 149.765 14.8975 149.73 15.1358L138.242 15.0584L138.295 13.7655L149.063 13.6643L148.11 14.3851C148.175 13.42 148.038 12.6455 147.699 12.0616C147.353 11.4777 146.847 11.0488 146.174 10.7807C145.501 10.5126 144.709 10.3815 143.798 10.3815C142.75 10.3815 141.88 10.5602 141.201 10.9118C140.523 11.2633 140.016 11.7935 139.689 12.5025C139.361 13.2115 139.2 14.0873 139.2 15.1358C139.2 16.2916 139.379 17.2985 139.73 18.1564C140.082 19.0203 140.624 19.6816 141.356 20.1582C142.089 20.6289 143.036 20.8672 144.209 20.8672C145.138 20.8672 146.055 20.7481 146.96 20.5038C147.866 20.2655 148.676 19.9616 149.402 19.5982L149.39 19.6101Z" fill="white"/>
</svg>
