<svg width="39" height="66" viewBox="0 0 39 66" fill="none" xmlns="http://www.w3.org/2000/svg">
<path d="M37.362 49.8316C37.8598 43.3294 38.4184 36.8271 38.9101 30.3249C39.1894 26.3483 38.0055 25.128 35.3767 23.8773C33.2214 22.8938 31.1087 21.8374 29.0202 20.7203C26.8528 19.5911 25.5475 17.8365 24.8736 15.5537V14.6066C25.6628 14.4488 25.9057 14.1634 25.9057 13.3863C25.9057 9.13041 25.9178 4.87451 25.9057 0.618613C25.9057 0.284698 25.6325 0.0175663 25.3046 0.0114951C21.5344 -0.000647243 17.7581 -0.00671842 13.9879 0.0114951C13.654 0.0114951 13.3869 0.284698 13.3808 0.618613C13.3747 4.87451 13.3808 9.13041 13.3808 13.3863C13.3808 14.1695 13.6237 14.4488 14.4129 14.6066V15.5537C13.8604 17.0472 13.2473 18.6986 11.9055 19.6578C10.0477 20.8781 8.1171 21.9527 6.0954 22.8756C3.70943 23.9623 0.716333 24.9641 0.430987 27.9936C0.273136 29.0621 0.364204 30.1124 0.449201 31.1749C0.685977 34.2226 0.91061 37.2764 1.15346 40.3241C1.4813 44.4525 1.82129 48.5809 2.14306 52.7154C2.41626 56.176 2.66518 59.6366 2.95053 63.0971C3.06588 64.4996 4.25583 65.5681 5.67042 65.5742C14.9836 65.5742 12.3062 65.5742 21.6194 65.5742L37.3559 49.8377L37.362 49.8316Z" fill="#E4E4E4"/>
<path d="M21.6251 65.5672C21.6251 61.6634 21.6008 57.7597 21.6251 53.862C21.6372 52.1742 23.1246 50.4196 24.7699 50.0007C25.2678 49.8732 25.7717 49.8125 26.2877 49.8125C29.979 49.8246 33.6703 49.8246 37.3616 49.8246C37.0398 51.5792 36.2748 53.1456 35.0424 54.4084C32.1282 57.4015 29.1715 60.3581 26.1784 63.2662C24.9278 64.4865 23.3736 65.2394 21.6311 65.5551L21.6251 65.5672Z" fill="#D3D3D1"/>
</svg>
