<svg width="49" height="31" viewBox="0 0 49 31" fill="none" xmlns="http://www.w3.org/2000/svg">
<path d="M9.32363 11.0749C9.32363 11.792 9.16721 12.4179 8.85436 12.9568C8.54152 13.4957 8.08095 13.9173 7.48134 14.2172C6.88172 14.5171 6.13872 14.6692 5.26103 14.6692H0.529297L0.642268 8.31949L0.529297 1.84375H4.99164C5.78243 1.84375 6.45591 1.96979 7.01642 2.22186C7.57693 2.47394 8.00708 2.83901 8.30689 3.32578C8.6067 3.8082 8.75877 4.39058 8.75877 5.06858C8.75877 5.53362 8.66318 5.98127 8.46766 6.41588C8.27213 6.85049 7.95494 7.22861 7.5161 7.55457C7.07725 7.88053 6.49067 8.12826 5.76505 8.28906C5.47394 8.32818 5.14806 8.37164 4.78742 8.41945C4.42244 8.4716 3.99663 8.51072 3.50564 8.54114C3.01465 8.57156 2.42373 8.58895 1.73721 8.58895V7.53284C1.95012 7.53284 2.17172 7.53284 2.39766 7.54153C2.6236 7.55022 2.86258 7.55457 3.11459 7.55891C3.3666 7.56326 3.6273 7.56761 3.89669 7.56761H4.73528C5.31317 7.56761 5.79981 7.49372 6.19521 7.34161C6.59061 7.18949 6.89476 6.95915 7.10766 6.64623C7.32057 6.3333 7.4292 5.92477 7.4292 5.42062C7.4292 4.8165 7.22498 4.33408 6.81655 3.96901C6.40812 3.60393 5.66946 3.4214 4.60493 3.4214C4.41809 3.4214 4.17477 3.4214 3.87931 3.43009C3.58385 3.43443 3.27535 3.43878 2.94513 3.43878C2.61491 3.43878 2.32379 3.43878 2.05875 3.44747C1.7937 3.45617 1.60686 3.45617 1.49389 3.45617L2.07613 2.83467V13.4392L1.66335 12.9872C2.08916 13.0133 2.58449 13.035 3.14935 13.0524C3.7142 13.0698 4.26602 13.0828 4.8048 13.0828C5.74767 13.0828 6.47764 12.896 6.99904 12.5179C7.52044 12.1397 7.78114 11.553 7.78114 10.7446C7.78114 10.1927 7.63776 9.7711 7.35533 9.48425C7.0729 9.19741 6.70792 8.99314 6.26473 8.88014C5.81719 8.76714 5.34358 8.71064 4.84391 8.71064H4.24864C4.05311 8.71064 3.86628 8.71064 3.68378 8.71933C3.50129 8.72368 3.31446 8.72802 3.11893 8.72802C2.92341 8.72802 2.72788 8.72802 2.52366 8.73672C2.32379 8.74106 2.11089 8.74541 1.88494 8.74541V7.95441C2.16303 7.94137 2.42807 7.93703 2.68443 7.93703C2.94079 7.93703 3.25363 7.93703 3.6273 7.92834C3.99663 7.92399 4.42244 7.91964 4.90039 7.91964C5.31317 7.91964 5.77809 7.96745 6.28645 8.06307C6.79482 8.15868 7.27712 8.31949 7.73769 8.55418C8.19392 8.78887 8.57628 9.10614 8.87609 9.51467C9.1759 9.92321 9.32797 10.4404 9.32797 11.0706L9.32363 11.0749Z" fill="#D3D3D1"/>
<path d="M15.4577 4.12695C16.5005 4.12695 17.3912 4.32253 18.1342 4.70933C18.8772 5.10049 19.4421 5.65245 19.8375 6.37825C20.2329 7.09971 20.4327 7.98197 20.4327 9.02505C20.4327 10.0029 20.2893 10.8591 20.0069 11.5893C19.7245 12.3194 19.3378 12.9235 18.8468 13.4059C18.3558 13.8884 17.7996 14.2491 17.1696 14.4881C16.5396 14.7272 15.8835 14.8445 15.1926 14.8445C14.1629 14.8445 13.2765 14.6489 12.5291 14.2621C11.7818 13.871 11.2082 13.3103 10.8042 12.5758C10.4001 11.8413 10.2002 10.9591 10.2002 9.92904C10.2002 8.89901 10.3392 8.09497 10.613 7.36482C10.8911 6.63902 11.2734 6.03491 11.7601 5.55683C12.251 5.07876 12.8159 4.72237 13.4546 4.48334C14.0933 4.2443 14.7625 4.12695 15.4533 4.12695H15.4577ZM15.2144 5.66983C14.3845 5.66983 13.7023 5.8176 13.1592 6.11314C12.6204 6.40867 12.225 6.83894 11.973 7.40394C11.721 7.96894 11.5949 8.66432 11.5949 9.49443C11.5949 10.2593 11.7253 10.9287 11.9903 11.5023C12.2554 12.076 12.6638 12.515 13.2156 12.8323C13.7675 13.1452 14.5018 13.3016 15.4186 13.3016C16.2485 13.3016 16.9306 13.1539 17.4738 12.8583C18.0125 12.5628 18.4079 12.1238 18.66 11.5415C18.912 10.9591 19.038 10.2507 19.038 9.42054C19.038 8.65562 18.9076 7.99067 18.6513 7.42567C18.3949 6.86067 17.9865 6.42606 17.426 6.12617C16.8655 5.82629 16.1312 5.67418 15.2144 5.67418V5.66983Z" fill="#D3D3D1"/>
<path d="M22.9753 4.2728H27.1552V5.81568H20.6377V4.96818L22.3149 4.42057L23.7444 2.33008H23.8183L23.7053 5.49406V11.2788C23.7053 11.8307 23.7748 12.2566 23.9138 12.5522C24.0529 12.8477 24.2658 13.0433 24.5526 13.1476C24.8393 13.2476 25.2 13.2997 25.6258 13.2997C25.9517 13.2997 26.2471 13.2823 26.5122 13.2432C26.7772 13.2041 27.0162 13.1606 27.2291 13.1128V14.6209C27.0423 14.6818 26.8163 14.7383 26.56 14.7817C26.3036 14.8252 25.9777 14.8469 25.591 14.8469C24.8741 14.8469 24.2701 14.7383 23.7748 14.5166C23.2795 14.2993 22.9101 13.9343 22.6625 13.4258C22.4192 12.9173 22.3018 12.2219 22.3149 11.344L22.4105 5.07249L22.9753 4.28149V4.2728Z" fill="#D3D3D1"/>
<path d="M30.779 4.2728H34.9589V5.81568H28.4414V4.96818L30.1186 4.42057L31.5481 2.33008H31.622L31.509 5.49406V11.2788C31.509 11.8307 31.5785 12.2566 31.7176 12.5522C31.8566 12.8477 32.0695 13.0433 32.3563 13.1476C32.643 13.2476 33.0037 13.2997 33.4295 13.2997C33.7554 13.2997 34.0508 13.2823 34.3159 13.2432C34.5809 13.2041 34.8199 13.1606 35.0328 13.1128V14.6209C34.846 14.6818 34.62 14.7383 34.3637 14.7817C34.1073 14.8252 33.7814 14.8469 33.3947 14.8469C32.6778 14.8469 32.0738 14.7383 31.5785 14.5166C31.0832 14.2993 30.7139 13.9343 30.4662 13.4258C30.2229 12.9173 30.1056 12.2219 30.1186 11.344L30.2142 5.07249L30.779 4.28149V4.2728Z" fill="#D3D3D1"/>
<path d="M38.1051 6.66792L38.2745 14.6735H36.6365L36.7494 6.87219L36.4844 0.261719H38.1051V6.66792Z" fill="#D3D3D1"/>
<path d="M48.4631 12.3742V13.9388C47.9591 14.1648 47.3812 14.3691 46.7294 14.5516C46.0777 14.7342 45.3738 14.8298 44.6221 14.8428C43.5793 14.8428 42.6842 14.6429 41.9369 14.2387C41.1895 13.8389 40.6203 13.2478 40.2336 12.4785C39.8425 11.7049 39.6514 10.7488 39.6514 9.60572C39.6514 8.64957 39.7991 7.82381 40.0946 7.12842C40.39 6.43304 40.7767 5.8637 41.2634 5.42474C41.7457 4.98578 42.2931 4.65547 42.9014 4.43382C43.5097 4.21652 44.1398 4.10352 44.7959 4.10352C45.7257 4.10352 46.4817 4.25998 47.064 4.5729C47.6462 4.88582 48.0764 5.34216 48.3544 5.93758C48.6325 6.533 48.7672 7.2675 48.7672 8.13238C48.7672 8.2845 48.7672 8.44096 48.7585 8.60176C48.7498 8.76692 48.7368 8.93642 48.7107 9.11026L40.3292 9.05376L40.3683 8.11065L48.2241 8.03677L47.5289 8.56265C47.5767 7.85857 47.4768 7.29358 47.2291 6.86766C46.9771 6.44174 46.6077 6.12881 46.1168 5.93758C45.6258 5.74201 45.0479 5.64639 44.3831 5.64639C43.6184 5.64639 42.984 5.77678 42.4887 6.0332C41.9933 6.28962 41.624 6.67643 41.385 7.19362C41.1461 7.71081 41.0287 8.34969 41.0287 9.11461C41.0287 9.95776 41.1591 10.6923 41.4154 11.3181C41.6718 11.9483 42.0672 12.4351 42.6016 12.7784C43.1361 13.1217 43.8269 13.2956 44.6829 13.2956C45.3607 13.2956 46.0299 13.2087 46.6903 13.0305C47.3507 12.8523 47.9417 12.635 48.4718 12.3699L48.4631 12.3742Z" fill="#D3D3D1"/>
<path d="M15.049 30.3902L5.48129 19.1815L6.51541 18.4644L6.66748 30.238H5.125L5.22059 17.3691H5.78544L15.2576 28.43L14.4668 28.6734L14.2235 17.4083H15.7486L15.6356 30.3902H15.0534H15.049Z" fill="#D3D3D1"/>
<path d="M22.4577 19.6875C23.5005 19.6875 24.3912 19.8831 25.1342 20.2699C25.8772 20.661 26.4421 21.213 26.8375 21.9388C27.2329 22.6603 27.4327 23.5425 27.4327 24.5856C27.4327 25.5635 27.2893 26.4197 27.0069 27.1498C26.7245 27.88 26.3378 28.4841 25.8468 28.9665C25.3558 29.4489 24.7996 29.8096 24.1696 30.0487C23.5396 30.2877 22.8835 30.4051 22.1926 30.4051C21.1629 30.4051 20.2765 30.2095 19.5291 29.8227C18.7818 29.4315 18.2082 28.8709 17.8042 28.1364C17.4001 27.4019 17.2002 26.5196 17.2002 25.4896C17.2002 24.4596 17.3392 23.6555 17.613 22.9297C17.8911 22.1996 18.2734 21.5998 18.7601 21.1217C19.251 20.6436 19.8159 20.2873 20.4546 20.0482C21.0933 19.8092 21.7625 19.6918 22.4533 19.6918L22.4577 19.6875ZM22.21 21.2304C21.3801 21.2304 20.6979 21.3781 20.1548 21.6737C19.616 21.9692 19.2206 22.3995 18.9686 22.9645C18.7166 23.5295 18.5906 24.2249 18.5906 25.055C18.5906 25.8199 18.721 26.4892 18.986 27.0629C19.251 27.6366 19.6595 28.0755 20.2113 28.3928C20.7631 28.7057 21.4974 28.8622 22.4142 28.8622C23.2441 28.8622 23.9263 28.7144 24.4694 28.4189C25.0082 28.1233 25.4036 27.6844 25.6556 27.102C25.9076 26.5196 26.0336 25.8112 26.0336 24.9811C26.0336 24.2162 25.9033 23.5512 25.6469 22.9862C25.3906 22.4212 24.9821 21.9866 24.4216 21.6867C23.8611 21.3868 23.1268 21.2347 22.21 21.2347V21.2304Z" fill="#D3D3D1"/>
<path d="M29.9714 19.8353H34.1513V21.3782H27.6338V20.5307L29.311 19.9831L30.7405 17.8926H30.8143L30.7014 21.0566V26.8413C30.7014 27.3932 30.7709 27.8191 30.9099 28.1147C31.049 28.4102 31.2619 28.6058 31.5487 28.7101C31.8354 28.8101 32.1961 28.8622 32.6219 28.8622C32.9478 28.8622 33.2432 28.8448 33.5083 28.8057C33.7733 28.7666 34.0123 28.7231 34.2252 28.6753V30.1834C34.0384 30.2443 33.8124 30.3008 33.5561 30.3442C33.2997 30.3877 32.9738 30.4094 32.5871 30.4094C31.8702 30.4094 31.2662 30.3008 30.7709 30.0791C30.2756 29.8618 29.9062 29.4968 29.6586 28.9883C29.4152 28.4798 29.2979 27.7844 29.311 26.9065L29.4066 20.6306L29.9714 19.8396V19.8353Z" fill="#D3D3D1"/>
<path d="M43.8889 27.9367V29.5013C43.3848 29.7273 42.8069 29.9316 42.1552 30.1141C41.5034 30.2967 40.7995 30.3923 40.0479 30.4053C39.005 30.4053 38.11 30.2054 37.3626 29.8012C36.6153 29.4014 36.0461 28.8103 35.6594 28.041C35.2683 27.2674 35.0771 26.3113 35.0771 25.1682C35.0771 24.2121 35.2249 23.3863 35.5203 22.6909C35.8158 21.9955 36.2025 21.4262 36.6892 20.9872C37.1714 20.5483 37.7189 20.218 38.3272 19.9963C38.9355 19.7747 39.5656 19.666 40.2217 19.666C41.1515 19.666 41.9075 19.8225 42.4898 20.1354C43.072 20.4483 43.5021 20.9047 43.7802 21.5001C44.0583 22.0955 44.193 22.83 44.193 23.6949C44.193 23.847 44.193 24.0035 44.1843 24.1643C44.1756 24.3294 44.1626 24.4989 44.1365 24.6728L35.755 24.6163L35.7941 23.6731L43.6499 23.5993L42.9547 24.1251C43.0025 23.4211 42.9025 22.8561 42.6549 22.4302C42.4029 22.0042 42.0335 21.6913 41.5425 21.4957C41.0516 21.3002 40.4737 21.2045 39.8089 21.2045C39.0442 21.2045 38.4098 21.3349 37.9144 21.5914C37.4191 21.8478 37.0498 22.2346 36.8108 22.7518C36.5718 23.269 36.4545 23.9078 36.4545 24.6728C36.4545 25.5159 36.5849 26.2504 36.8412 26.8762C37.0976 27.5021 37.493 27.9889 38.0274 28.3365C38.5619 28.6799 39.2527 28.8537 40.1087 28.8537C40.7865 28.8537 41.4556 28.7668 42.1161 28.5886C42.7765 28.4148 43.3675 28.1931 43.8975 27.928L43.8889 27.9367Z" fill="#D3D3D1"/>
</svg>
