<svg width="120" height="171" viewBox="0 0 120 171" fill="none" xmlns="http://www.w3.org/2000/svg">
<path d="M83.503 66.1137C84.1635 57.4869 84.9045 48.8601 85.557 40.2333C85.9275 34.9574 84.3568 33.3383 80.869 31.679C78.0095 30.3741 75.2064 28.9726 72.4355 27.4905C69.5599 25.9923 67.8281 23.6644 66.9341 20.6358V19.3792C67.9812 19.1698 68.3034 18.7912 68.3034 17.7602C68.3034 12.1137 68.3195 6.46722 68.3034 0.82074C68.3034 0.377721 67.9409 0.0233059 67.506 0.0152511C62.5039 -0.000858724 57.4937 -0.00891361 52.4916 0.0152511C52.0486 0.0152511 51.6942 0.377721 51.6861 0.82074C51.6781 6.46722 51.6861 12.1137 51.6861 17.7602C51.6861 18.7993 52.0083 19.1698 53.0555 19.3792V20.6358C52.3225 22.6173 51.5089 24.8082 49.7288 26.0809C47.264 27.6999 44.7026 29.1256 42.0203 30.35C38.8547 31.7918 34.8837 33.1208 34.5051 37.1402C34.2956 38.5579 34.4165 39.9514 34.5292 41.361C34.8434 45.4046 35.1414 49.4562 35.4636 53.4997C35.8986 58.977 36.3496 64.4544 36.7765 69.9397C37.139 74.531 37.4693 79.1223 37.8478 83.7136C38.0009 85.5743 39.5797 86.992 41.4564 87C53.8126 87 50.2604 87 62.6166 87L83.4949 66.1217L83.503 66.1137Z" fill="white"/>
<path d="M62.6247 86.9923C62.6247 81.813 62.5925 76.6337 62.6247 71.4625C62.6408 69.2232 64.6142 66.8953 66.7971 66.3395C67.4576 66.1704 68.1262 66.0898 68.8108 66.0898C73.7082 66.106 78.6056 66.106 83.5029 66.106C83.076 68.4338 82.0611 70.512 80.426 72.1874C76.5596 76.1585 72.6369 80.0812 68.6658 83.9395C67.0065 85.5585 64.9445 86.5573 62.6327 86.9762L62.6247 86.9923Z" fill="#E6E6DD"/>
<path d="M21.8771 122.901C21.8771 124.685 21.488 126.242 20.7098 127.583C19.9315 128.923 18.7858 129.972 17.2942 130.718C15.8026 131.464 13.9542 131.843 11.7708 131.843H0L0.28103 116.047L0 99.9375H11.1007C13.0679 99.9375 14.7433 100.251 16.1376 100.878C17.532 101.505 18.602 102.413 19.3479 103.624C20.0937 104.824 20.472 106.273 20.472 107.96C20.472 109.117 20.2342 110.23 19.7478 111.311C19.2614 112.392 18.4723 113.333 17.3806 114.144C16.2889 114.955 14.8298 115.571 13.0247 115.971C12.3005 116.068 11.4898 116.177 10.5927 116.295C9.68474 116.425 8.62547 116.523 7.40407 116.598C6.18267 116.674 4.71266 116.717 3.00486 116.717V114.09C3.5345 114.09 4.08575 114.09 4.64781 114.112C5.20987 114.133 5.80436 114.144 6.43127 114.155C7.05818 114.166 7.70672 114.176 8.37687 114.176H10.463C11.9006 114.176 13.1111 113.993 14.0948 113.614C15.0784 113.236 15.835 112.663 16.3646 111.884C16.8942 111.106 17.1645 110.09 17.1645 108.835C17.1645 107.333 16.6565 106.133 15.6404 105.224C14.6244 104.316 12.7869 103.862 10.1387 103.862C9.67393 103.862 9.06863 103.862 8.33363 103.884C7.59863 103.895 6.8312 103.905 6.00973 103.905C5.18825 103.905 4.46406 103.905 3.80472 103.927C3.14538 103.949 2.6806 103.949 2.39957 103.949L3.84795 102.403V128.783L2.82111 127.658C3.88038 127.723 5.11259 127.777 6.51774 127.821C7.92289 127.864 9.29562 127.896 10.6359 127.896C12.9814 127.896 14.7973 127.431 16.0944 126.491C17.3915 125.55 18.04 124.091 18.04 122.08C18.04 120.707 17.6833 119.658 16.9807 118.944C16.2781 118.231 15.3702 117.723 14.2677 117.442C13.1544 117.16 11.9762 117.02 10.7332 117.02H9.25238C8.76598 117.02 8.3012 117.02 7.84723 117.041C7.39326 117.052 6.92848 117.063 6.44208 117.063C5.95568 117.063 5.46928 117.063 4.96127 117.085C4.46406 117.096 3.93442 117.106 3.37236 117.106V115.139C4.06413 115.106 4.72347 115.095 5.36119 115.095C5.99892 115.095 6.77715 115.095 7.70672 115.074C8.62547 115.063 9.68474 115.052 10.8737 115.052C11.9006 115.052 13.0571 115.171 14.3217 115.409C15.5864 115.647 16.7862 116.047 17.9319 116.631C19.0668 117.214 20.018 118.004 20.7638 119.02C21.5096 120.036 21.8879 121.323 21.8879 122.891L21.8771 122.901Z" fill="white"/>
<path d="M37.1393 105.609C39.7334 105.609 41.9492 106.096 43.7975 107.058C45.6458 108.031 47.051 109.404 48.0346 111.21C49.0182 113.005 49.5154 115.199 49.5154 117.794C49.5154 120.227 49.1587 122.357 48.4561 124.173C47.7536 125.989 46.7916 127.492 45.5702 128.692C44.3488 129.892 42.9652 130.79 41.398 131.384C39.8307 131.979 38.1985 132.271 36.4799 132.271C33.9182 132.271 31.7132 131.784 29.8541 130.822C27.995 129.849 26.5682 128.454 25.563 126.627C24.5578 124.8 24.0605 122.605 24.0605 120.043C24.0605 117.481 24.4064 115.48 25.0874 113.664C25.7792 111.858 26.7303 110.356 27.9409 109.166C29.1623 107.977 30.5675 107.091 32.1564 106.496C33.7453 105.901 35.4098 105.609 37.1285 105.609H37.1393ZM36.534 109.447C34.4695 109.447 32.7725 109.815 31.4214 110.55C30.0811 111.285 29.0975 112.356 28.4706 113.761C27.8436 115.167 27.5302 116.897 27.5302 118.962C27.5302 120.865 27.8545 122.53 28.5138 123.957C29.1731 125.384 30.1892 126.476 31.5619 127.265C32.9346 128.043 34.7613 128.433 37.042 128.433C39.1065 128.433 40.8035 128.065 42.1546 127.33C43.4949 126.595 44.4785 125.503 45.1054 124.054C45.7323 122.605 46.0458 120.843 46.0458 118.778C46.0458 116.875 45.7215 115.221 45.0838 113.815C44.4461 112.41 43.43 111.329 42.0357 110.583C40.6413 109.837 38.8146 109.458 36.534 109.458V109.447Z" fill="white"/>
<path d="M55.8386 105.981H66.2367V109.819H50.0234V107.711L54.1957 106.349L57.7518 101.148H57.9355L57.6545 109.019V123.41C57.6545 124.783 57.8274 125.842 58.1733 126.577C58.5192 127.313 59.0488 127.799 59.7622 128.059C60.4756 128.307 61.3727 128.437 62.432 128.437C63.2427 128.437 63.9777 128.394 64.637 128.296C65.2964 128.199 65.8908 128.091 66.4205 127.972V131.724C65.9557 131.875 65.3936 132.016 64.7559 132.124C64.1182 132.232 63.3075 132.286 62.3455 132.286C60.5621 132.286 59.0596 132.016 57.8274 131.464C56.5952 130.924 55.6765 130.015 55.0604 128.75C54.4551 127.486 54.1632 125.756 54.1957 123.572L54.4335 107.971L55.8386 106.003V105.981Z" fill="white"/>
<path d="M75.2507 105.981H85.6488V109.819H69.4355V107.711L73.6078 106.349L77.1639 101.148H77.3476L77.0666 109.019V123.41C77.0666 124.783 77.2395 125.842 77.5854 126.577C77.9313 127.313 78.4609 127.799 79.1743 128.059C79.8877 128.307 80.7849 128.437 81.8441 128.437C82.6548 128.437 83.3898 128.394 84.0491 128.296C84.7085 128.199 85.303 128.091 85.8326 127.972V131.724C85.3678 131.875 84.8057 132.016 84.168 132.124C83.5303 132.232 82.7196 132.286 81.7576 132.286C79.9742 132.286 78.4718 132.016 77.2395 131.464C76.0073 130.924 75.0886 130.015 74.4725 128.75C73.8672 127.486 73.5753 125.756 73.6078 123.572L73.8456 107.971L75.2507 106.003V105.981Z" fill="white"/>
<path d="M93.4751 111.936L93.8966 131.851H89.8217L90.1027 112.444L89.4434 96H93.4751V111.936Z" fill="white"/>
<path d="M119.243 126.133V130.025C117.989 130.587 116.551 131.096 114.93 131.55C113.309 132.004 111.558 132.242 109.688 132.274C107.093 132.274 104.867 131.777 103.008 130.771C101.149 129.777 99.7326 128.306 98.7706 126.393C97.7979 124.468 97.3223 122.09 97.3223 119.246C97.3223 116.868 97.6898 114.813 98.4248 113.083C99.1598 111.354 100.122 109.937 101.332 108.845C102.532 107.753 103.894 106.932 105.407 106.38C106.921 105.84 108.488 105.559 110.12 105.559C112.433 105.559 114.314 105.948 115.762 106.726C117.211 107.505 118.281 108.64 118.972 110.121C119.664 111.602 119.999 113.429 119.999 115.581C119.999 115.959 119.999 116.349 119.978 116.749C119.956 117.159 119.924 117.581 119.859 118.014L99.0084 117.873L99.1057 115.527L118.648 115.343L116.919 116.651C117.038 114.9 116.789 113.494 116.173 112.435C115.546 111.375 114.627 110.597 113.406 110.121C112.184 109.635 110.747 109.397 109.093 109.397C107.191 109.397 105.613 109.721 104.38 110.359C103.148 110.997 102.229 111.959 101.635 113.246C101.041 114.532 100.749 116.122 100.749 118.024C100.749 120.122 101.073 121.949 101.711 123.506C102.348 125.074 103.332 126.284 104.661 127.139C105.991 127.993 107.71 128.425 109.839 128.425C111.525 128.425 113.19 128.209 114.833 127.766C116.476 127.322 117.946 126.782 119.264 126.122L119.243 126.133Z" fill="white"/>
<path d="M36.123 170.946L12.3219 143.063L14.8944 141.279L15.2727 170.568H11.4355L11.6733 138.555H13.0785L36.6418 166.07L34.6746 166.676L34.0693 138.652H37.8632L37.5822 170.946H36.1338H36.123Z" fill="white"/>
<path d="M54.5533 144.328C57.1475 144.328 59.3633 144.815 61.2116 145.777C63.0599 146.75 64.465 148.123 65.4487 149.929C66.4323 151.723 66.9295 153.918 66.9295 156.513C66.9295 158.945 66.5728 161.075 65.8702 162.892C65.1676 164.708 64.2056 166.211 62.9842 167.411C61.7628 168.611 60.3793 169.508 58.812 170.103C57.2447 170.698 55.6126 170.99 53.894 170.99C51.3323 170.99 49.1273 170.503 47.2682 169.541C45.409 168.568 43.9823 167.173 42.977 165.346C41.9718 163.519 41.4746 161.324 41.4746 158.762C41.4746 156.199 41.8205 154.199 42.5015 152.394C43.1932 150.577 44.1444 149.085 45.355 147.896C46.5764 146.707 47.9815 145.82 49.5704 145.225C51.1593 144.631 52.8239 144.339 54.5425 144.339L54.5533 144.328ZM53.9372 148.166C51.8727 148.166 50.1757 148.534 48.8246 149.269C47.4843 150.004 46.5007 151.075 45.8738 152.48C45.2469 153.886 44.9334 155.615 44.9334 157.68C44.9334 159.583 45.2577 161.248 45.9171 162.675C46.5764 164.103 47.5924 165.195 48.9651 165.984C50.3379 166.762 52.1646 167.151 54.4452 167.151C56.5097 167.151 58.2067 166.784 59.5578 166.049C60.8981 165.313 61.8817 164.221 62.5086 162.773C63.1356 161.324 63.449 159.562 63.449 157.497C63.449 155.594 63.1248 153.94 62.487 152.534C61.8493 151.129 60.8333 150.047 59.4389 149.301C58.0446 148.555 56.2179 148.177 53.9372 148.177V148.166Z" fill="white"/>
<path d="M73.241 144.696H83.6391V148.534H67.4258V146.426L71.598 145.064L75.1541 139.863H75.3379L75.0568 147.734V162.124C75.0568 163.497 75.2298 164.557 75.5757 165.292C75.9215 166.027 76.4512 166.514 77.1646 166.773C77.8779 167.022 78.7751 167.152 79.8344 167.152C80.645 167.152 81.38 167.109 82.0394 167.011C82.6987 166.914 83.2932 166.806 83.8228 166.687V170.439C83.358 170.59 82.796 170.73 82.1583 170.839C81.5205 170.947 80.7099 171.001 79.7479 171.001C77.9644 171.001 76.462 170.73 75.2298 170.179C73.9976 169.638 73.0788 168.73 72.4627 167.465C71.8574 166.2 71.5656 164.471 71.598 162.287L71.8358 146.675L73.241 144.707V144.696Z" fill="white"/>
<path d="M107.862 164.848V168.74C106.608 169.302 105.17 169.81 103.549 170.265C101.928 170.719 100.177 170.957 98.3067 170.989C95.7126 170.989 93.486 170.492 91.6269 169.486C89.7677 168.491 88.3518 167.021 87.3898 165.107C86.417 163.183 85.9414 160.804 85.9414 157.961C85.9414 155.582 86.3089 153.528 87.0439 151.798C87.7789 150.068 88.7409 148.652 89.9515 147.56C91.1513 146.468 92.5132 145.647 94.0264 145.095C95.5397 144.544 97.107 144.273 98.7391 144.273C101.052 144.273 102.933 144.663 104.381 145.441C105.83 146.22 106.9 147.355 107.592 148.836C108.283 150.317 108.618 152.144 108.618 154.296C108.618 154.674 108.618 155.063 108.597 155.463C108.575 155.874 108.543 156.296 108.478 156.728L87.6276 156.588L87.7249 154.242L107.267 154.058L105.538 155.366C105.657 153.615 105.408 152.209 104.792 151.15C104.165 150.09 103.246 149.312 102.025 148.825C100.804 148.339 99.366 148.101 97.7123 148.101C95.8099 148.101 94.2318 148.425 92.9996 149.063C91.7674 149.701 90.8486 150.663 90.2541 151.95C89.6597 153.236 89.3678 154.826 89.3678 156.728C89.3678 158.826 89.6921 160.653 90.3298 162.21C90.9675 163.767 91.9511 164.978 93.2806 165.843C94.6101 166.697 96.3287 167.129 98.4581 167.129C100.144 167.129 101.809 166.913 103.452 166.47C105.095 166.037 106.565 165.486 107.883 164.826L107.862 164.848Z" fill="white"/>
</svg>
