<svg width="136" height="26" viewBox="0 0 136 26" fill="none" xmlns="http://www.w3.org/2000/svg">
<path d="M33.7566 18.2331C33.7566 19.1103 33.5653 19.8759 33.1826 20.5352C32.8 21.1945 32.2366 21.7102 31.5032 22.077C30.7645 22.4439 29.861 22.6299 28.7875 22.6299H23L23.1382 14.8624L23 6.94067H28.458C29.4253 6.94067 30.249 7.09486 30.9346 7.40322C31.6202 7.71158 32.1463 8.15817 32.513 8.75363C32.8797 9.34377 33.0657 10.0562 33.0657 10.8856C33.0657 11.4545 32.9488 12.0021 32.7096 12.5337C32.4705 13.0654 32.0825 13.5279 31.5458 13.9267C31.009 14.3254 30.2915 14.6285 29.404 14.8252C29.0479 14.873 28.6493 14.9262 28.2082 14.9847C27.7618 15.0485 27.241 15.0963 26.6404 15.1335C26.0399 15.1708 25.3171 15.192 24.4774 15.192V13.9001C24.7378 13.9001 25.0089 13.9001 25.2852 13.9107C25.5616 13.916 25.8539 13.9267 26.1621 13.932C26.4704 13.9373 26.7893 13.9426 27.1188 13.9426H28.1445C28.8513 13.9426 29.4465 13.8522 29.9301 13.6662C30.4138 13.4801 30.7858 13.1983 31.0462 12.8155C31.3066 12.4327 31.4395 11.933 31.4395 11.3162C31.4395 10.5772 31.1897 9.98708 30.6901 9.54049C30.1905 9.09389 29.2871 8.8706 27.985 8.8706C27.7565 8.8706 27.4589 8.8706 27.0975 8.88123C26.7361 8.89186 26.3588 8.89186 25.9549 8.89186C25.551 8.89186 25.1949 8.89186 24.8707 8.9025C24.5465 8.91313 24.318 8.91313 24.1798 8.91313L24.892 8.15286V21.1253L24.3871 20.5724C24.9079 20.6043 25.5138 20.6309 26.2047 20.6522C26.8955 20.6734 27.5705 20.6841 28.2295 20.6841C29.3827 20.6841 30.2756 20.4554 30.9133 19.9929C31.5511 19.5304 31.8699 18.8126 31.8699 17.8291C31.8699 17.1538 31.6946 16.6381 31.3491 16.2872C31.0037 15.9363 30.5573 15.6865 30.0152 15.5482C29.4678 15.41 28.8885 15.3409 28.2773 15.3409H27.5492C27.3101 15.3409 27.0816 15.3409 26.8583 15.3515C26.6351 15.3568 26.4066 15.3622 26.1675 15.3622C25.9283 15.3622 25.6891 15.3622 25.4394 15.3728C25.1949 15.3781 24.9345 15.3834 24.6581 15.3834V14.4158C24.9983 14.3999 25.3224 14.3945 25.636 14.3945C25.9496 14.3945 26.3322 14.3945 26.7893 14.3839C27.241 14.3786 27.7618 14.3733 28.3464 14.3733C28.8513 14.3733 29.4199 14.4318 30.0417 14.5487C30.6635 14.6657 31.2535 14.8624 31.8168 15.1495C32.3748 15.4366 32.8425 15.8247 33.2092 16.3245C33.5759 16.8242 33.7619 17.4569 33.7619 18.2278L33.7566 18.2331Z" fill="#E58257"/>
<path d="M41.2606 9.73193C42.5361 9.73193 43.6256 9.97118 44.5344 10.4444C45.4432 10.9228 46.1341 11.5981 46.6177 12.4859C47.1013 13.3685 47.3458 14.4477 47.3458 15.7237C47.3458 16.92 47.1704 17.9673 46.825 18.8605C46.4795 19.7537 46.0065 20.4927 45.406 21.0829C44.8054 21.673 44.1252 22.1143 43.3546 22.4067C42.584 22.6991 41.7815 22.8426 40.9365 22.8426C39.6769 22.8426 38.5928 22.6034 37.6787 22.1302C36.7646 21.6517 36.063 20.9659 35.5688 20.0674C35.0745 19.1689 34.8301 18.0896 34.8301 16.8296C34.8301 15.5695 35.0001 14.586 35.335 13.6928C35.6751 12.7996 36.1428 12.0659 36.738 11.4811C37.3385 10.8963 38.0294 10.4603 38.8107 10.1679C39.5919 9.87548 40.4103 9.73193 41.2553 9.73193H41.2606ZM40.963 11.6193C39.948 11.6193 39.1136 11.8001 38.4493 12.1616C37.7903 12.5231 37.3066 13.0495 36.9984 13.7406C36.6902 14.4318 36.536 15.2825 36.536 16.2979C36.536 17.2336 36.6955 18.0524 37.0197 18.7542C37.3438 19.456 37.8434 19.993 38.5184 20.3811C39.1933 20.7639 40.0915 20.9553 41.2128 20.9553C42.2279 20.9553 43.0623 20.7745 43.7266 20.413C44.3856 20.0514 44.8692 19.5145 45.1775 18.802C45.4857 18.0896 45.6398 17.223 45.6398 16.2075C45.6398 15.2718 45.4804 14.4584 45.1668 13.7672C44.8533 13.0761 44.3537 12.5444 43.6681 12.1776C42.9826 11.8107 42.0844 11.6246 40.963 11.6246V11.6193Z" fill="#E58257"/>
<path d="M50.4549 9.91265H55.5675V11.8H47.5957V10.7633L49.6471 10.0934L51.3956 7.53613H51.4859L51.3478 11.4066V18.483C51.3478 19.1582 51.4328 19.6792 51.6029 20.0408C51.7729 20.4023 52.0333 20.6415 52.3841 20.7691C52.7348 20.8914 53.176 20.9552 53.6968 20.9552C54.0954 20.9552 54.4568 20.9339 54.7809 20.8861C55.1051 20.8382 55.3974 20.7851 55.6578 20.7266V22.5714C55.4293 22.6459 55.153 22.715 54.8394 22.7682C54.5258 22.8213 54.1273 22.8479 53.6543 22.8479C52.7774 22.8479 52.0386 22.715 51.4328 22.4439C50.8269 22.178 50.3752 21.7314 50.0723 21.1094C49.7693 20.4873 49.6312 19.6367 49.6471 18.5627L49.764 10.8909L50.4549 9.92328V9.91265Z" fill="#E58257"/>
<path d="M59.9998 9.91265H65.1124V11.8H57.1406V10.7633L59.192 10.0934L60.9405 7.53613H61.0309L60.8927 11.4066V18.483C60.8927 19.1582 60.9777 19.6792 61.1478 20.0408C61.3178 20.4023 61.5783 20.6415 61.929 20.7691C62.2798 20.8914 62.7209 20.9552 63.2417 20.9552C63.6403 20.9552 64.0017 20.9339 64.3259 20.8861C64.65 20.8382 64.9423 20.7851 65.2028 20.7266V22.5714C64.9742 22.6459 64.6979 22.715 64.3843 22.7682C64.0708 22.8213 63.6722 22.8479 63.1992 22.8479C62.3223 22.8479 61.5836 22.715 60.9777 22.4439C60.3719 22.178 59.9201 21.7314 59.6172 21.1094C59.3143 20.4873 59.1761 19.6367 59.192 18.5627L59.309 10.8909L59.9998 9.92328V9.91265Z" fill="#E58257"/>
<path d="M68.9599 12.842L69.1671 22.6351H67.1635L67.3017 13.0919L66.9775 5H68.9599V12.8367V12.842Z" fill="#E58257"/>
<path d="M81.6299 19.8223V21.7363C81.0134 22.0127 80.3066 22.2626 79.5094 22.4859C78.7122 22.7092 77.8513 22.8262 76.9319 22.8421C75.6564 22.8421 74.5616 22.5976 73.6475 22.1031C72.7334 21.614 72.0372 20.8909 71.5642 19.9499C71.0859 19.0036 70.8521 17.8339 70.8521 16.4356C70.8521 15.266 71.0327 14.2558 71.3941 13.4052C71.7555 12.5545 72.2285 11.8581 72.8237 11.3211C73.4136 10.7841 74.0833 10.38 74.8273 10.1089C75.5713 9.83775 76.3419 9.70483 77.1444 9.70483C78.2817 9.70483 79.2065 9.89623 79.9186 10.279C80.6308 10.6618 81.1569 11.2201 81.497 11.9484C81.8372 12.6768 82.0019 13.5753 82.0019 14.6333C82.0019 14.8194 82.0019 15.0108 81.9913 15.2075C81.9807 15.4095 81.9647 15.6169 81.9328 15.8295L71.6811 15.7604L71.7289 14.6067L81.3376 14.5163L80.4873 15.1597C80.5457 14.2984 80.4235 13.6072 80.1206 13.0862C79.8123 12.5652 79.3606 12.1824 78.7601 11.9431C78.1595 11.7039 77.4527 11.5869 76.6396 11.5869C75.7042 11.5869 74.9283 11.7464 74.3224 12.0601C73.7166 12.3738 73.2648 12.8469 72.9725 13.4796C72.6802 14.1123 72.5368 14.8938 72.5368 15.8295C72.5368 16.861 72.6962 17.7595 73.0097 18.5251C73.3233 19.296 73.8069 19.8861 74.4606 20.3114C75.1143 20.7314 75.9593 20.9441 77.0063 20.9441C77.8353 20.9441 78.6538 20.8378 79.4616 20.6198C80.2694 20.4071 80.9922 20.136 81.6405 19.8117L81.6299 19.8223Z" fill="#E58257"/>
<path d="M100.236 22.8211L88.5334 9.1096L89.7983 8.23236L89.9843 22.635H88.0977L88.2146 6.89258H88.9055L100.491 20.4233L99.5239 20.721L99.2263 6.94043H101.092L100.953 22.8211H100.241H100.236Z" fill="#E58257"/>
<path d="M109.298 9.73193C110.573 9.73193 111.663 9.97118 112.572 10.4444C113.48 10.9228 114.171 11.5981 114.655 12.4859C115.138 13.3685 115.383 14.4477 115.383 15.7237C115.383 16.92 115.208 17.9673 114.862 18.8605C114.517 19.7537 114.044 20.4927 113.443 21.0829C112.843 21.673 112.162 22.1143 111.392 22.4067C110.621 22.6991 109.819 22.8426 108.974 22.8426C107.714 22.8426 106.63 22.6034 105.716 22.1302C104.802 21.6517 104.1 20.9659 103.606 20.0674C103.112 19.1689 102.867 18.0896 102.867 16.8296C102.867 15.5695 103.037 14.586 103.372 13.6928C103.712 12.7996 104.18 12.0659 104.775 11.4811C105.376 10.8963 106.067 10.4603 106.848 10.1679C107.629 9.87548 108.447 9.73193 109.292 9.73193H109.298ZM109 11.6193C107.985 11.6193 107.151 11.8001 106.486 12.1616C105.827 12.5231 105.344 13.0495 105.036 13.7406C104.727 14.4318 104.573 15.2825 104.573 16.2979C104.573 17.2336 104.733 18.0524 105.057 18.7542C105.381 19.456 105.881 19.993 106.555 20.3811C107.23 20.7639 108.129 20.9553 109.25 20.9553C110.265 20.9553 111.099 20.7745 111.764 20.413C112.423 20.0514 112.906 19.5145 113.215 18.802C113.523 18.0896 113.677 17.223 113.677 16.2075C113.677 15.2718 113.517 14.4584 113.204 13.7672C112.89 13.0761 112.391 12.5444 111.705 12.1776C111.02 11.8107 110.122 11.6246 109 11.6246V11.6193Z" fill="#E58257"/>
<path d="M118.491 9.91265H123.604V11.8H115.632V10.7633L117.683 10.0934L119.432 7.53613H119.522L119.384 11.4066V18.483C119.384 19.1582 119.469 19.6792 119.639 20.0408C119.809 20.4023 120.069 20.6415 120.42 20.7691C120.771 20.8914 121.212 20.9552 121.733 20.9552C122.131 20.9552 122.493 20.9339 122.817 20.8861C123.141 20.8382 123.434 20.7851 123.694 20.7266V22.5714C123.465 22.6459 123.189 22.715 122.876 22.7682C122.562 22.8213 122.163 22.8479 121.69 22.8479C120.813 22.8479 120.075 22.715 119.469 22.4439C118.863 22.178 118.411 21.7314 118.108 21.1094C117.805 20.4873 117.667 19.6367 117.683 18.5627L117.8 10.8909L118.491 9.92328V9.91265Z" fill="#E58257"/>
<path d="M135.514 19.8223V21.7363C134.897 22.0127 134.19 22.2626 133.393 22.4859C132.596 22.7092 131.735 22.8262 130.816 22.8421C129.54 22.8421 128.445 22.5976 127.531 22.1031C126.617 21.614 125.921 20.8909 125.448 19.9499C124.97 19.0036 124.736 17.8339 124.736 16.4356C124.736 15.266 124.917 14.2558 125.278 13.4052C125.639 12.5545 126.112 11.8581 126.708 11.3211C127.297 10.7841 127.967 10.38 128.711 10.1089C129.455 9.83775 130.226 9.70483 131.028 9.70483C132.166 9.70483 133.09 9.89623 133.802 10.279C134.515 10.6618 135.041 11.2201 135.381 11.9484C135.721 12.6768 135.886 13.5753 135.886 14.6333C135.886 14.8194 135.886 15.0108 135.875 15.2075C135.864 15.4095 135.849 15.6169 135.817 15.8295L125.565 15.7604L125.613 14.6067L135.221 14.5163L134.371 15.1597C134.43 14.2984 134.307 13.6072 134.004 13.0862C133.696 12.5652 133.244 12.1824 132.644 11.9431C132.043 11.7039 131.336 11.5869 130.523 11.5869C129.588 11.5869 128.812 11.7464 128.206 12.0601C127.6 12.3738 127.149 12.8469 126.856 13.4796C126.564 14.1123 126.421 14.8938 126.421 15.8295C126.421 16.861 126.58 17.7595 126.894 18.5251C127.207 19.296 127.691 19.8861 128.344 20.3114C128.998 20.7314 129.843 20.9441 130.89 20.9441C131.719 20.9441 132.538 20.8378 133.345 20.6198C134.153 20.4071 134.876 20.136 135.524 19.8117L135.514 19.8223Z" fill="#E58257"/>
<path d="M14.6802 19.7621C14.8776 17.1834 15.0991 14.6048 15.2941 12.0261C15.4049 10.4491 14.9354 9.96517 13.8929 9.46918C13.0381 9.07914 12.2003 8.6602 11.372 8.21719C10.5125 7.76936 9.99482 7.07353 9.72756 6.16824V5.79264C10.0406 5.73004 10.1369 5.61688 10.1369 5.3087C10.1369 3.62091 10.1417 1.93312 10.1369 0.245328C10.1369 0.112905 10.0285 0.00696638 9.89851 0.0045587C8.40333 -0.000256681 6.90575 -0.00266437 5.41058 0.0045587C5.27815 0.0045587 5.17222 0.112905 5.16981 0.245328C5.1674 1.93312 5.16981 3.62091 5.16981 5.3087C5.16981 5.61929 5.26612 5.73004 5.57912 5.79264V6.16824C5.36002 6.76053 5.11684 7.41543 4.58474 7.79584C3.84799 8.27979 3.08234 8.70595 2.28058 9.07191C1.33436 9.50289 0.14737 9.90016 0.0342089 11.1016C-0.028391 11.5253 0.00772434 11.9419 0.041432 12.3632C0.135332 13.5719 0.224416 14.783 0.320724 15.9916C0.450739 17.6288 0.58557 19.2661 0.713177 20.9057C0.821523 22.2781 0.920238 23.6505 1.0334 25.0229C1.07915 25.579 1.55105 26.0028 2.11204 26.0052C5.80544 26.0052 4.74365 26.0052 8.43704 26.0052L14.6778 19.7645L14.6802 19.7621Z" fill="url(#paint0_linear_3333_28155)"/>
<path d="M8.43934 26.0028C8.43934 24.4547 8.42971 22.9065 8.43934 21.3608C8.44415 20.6915 9.03404 19.9957 9.68652 19.8295C9.88395 19.779 10.0838 19.7549 10.2884 19.7549C11.7523 19.7597 13.2162 19.7597 14.6801 19.7597C14.5525 20.4555 14.2491 21.0767 13.7603 21.5775C12.6046 22.7645 11.4321 23.937 10.2451 25.0903C9.74912 25.5743 9.13275 25.8728 8.44175 25.998L8.43934 26.0028Z" fill="#E6E6DD"/>
<defs>
<linearGradient id="paint0_linear_3333_28155" x1="1.84203" y1="9.31853" x2="13.9778" y2="21.2376" gradientUnits="userSpaceOnUse">
<stop stop-color="#F0996E"/>
<stop offset="1" stop-color="#E58257"/>
</linearGradient>
</defs>
</svg>
