<svg width="163" height="26" viewBox="0 0 163 26" fill="none" xmlns="http://www.w3.org/2000/svg">
<path d="M14.6802 19.7581C14.8776 17.18 15.0991 14.6019 15.2941 12.0237C15.4049 10.447 14.9354 9.96318 13.8929 9.46729C13.0381 9.07733 12.2003 8.65847 11.372 8.21555C10.5125 7.76781 9.99482 7.07212 9.72756 6.16701V5.79149C10.0406 5.7289 10.1369 5.61576 10.1369 5.30764C10.1369 3.62018 10.1417 1.93273 10.1369 0.245279C10.1369 0.112882 10.0285 0.00696499 9.89851 0.00455779C8.40333 -0.00025663 6.90575 -0.00266384 5.41058 0.00455779C5.27815 0.00455779 5.17222 0.112882 5.16981 0.245279C5.1674 1.93273 5.16981 3.62018 5.16981 5.30764C5.16981 5.61817 5.26612 5.7289 5.57912 5.79149V6.16701C5.36002 6.75918 5.11684 7.41395 4.58474 7.79428C3.84799 8.27813 3.08234 8.70421 2.28058 9.0701C1.33436 9.50099 0.14737 9.89818 0.0342089 11.0994C-0.028391 11.523 0.00772434 11.9395 0.041432 12.3608C0.135332 13.5692 0.224416 14.78 0.320724 15.9884C0.450739 17.6253 0.58557 19.2622 0.713177 20.9015C0.821523 22.2736 0.920238 23.6458 1.0334 25.0179C1.07915 25.5739 1.55105 25.9976 2.11204 26C5.80544 26 4.74365 26 8.43704 26L14.6778 19.7605L14.6802 19.7581Z" fill="url(#paint0_linear_4754_44697)"/>
<path d="M8.43934 25.9967C8.43934 24.4489 8.42971 22.901 8.43934 21.3556C8.44415 20.6864 9.03404 19.9907 9.68652 19.8246C9.88395 19.7741 10.0838 19.75 10.2884 19.75C11.7523 19.7548 13.2162 19.7548 14.6801 19.7548C14.5525 20.4505 14.2491 21.0716 13.7603 21.5723C12.6046 22.759 11.4321 23.9313 10.2451 25.0844C9.74912 25.5682 9.13275 25.8667 8.44175 25.9919L8.43934 25.9967Z" fill="#E6E6DD"/>
<path d="M35.3639 17.8301C35.3639 18.8131 35.1495 19.6711 34.7207 20.4098C34.2919 21.1486 33.6607 21.7265 32.8388 22.1376C32.011 22.5487 30.9986 22.7572 29.7956 22.7572H23.3101L23.4649 14.0529L23.3101 5.17578H29.4263C30.5102 5.17578 31.4333 5.34856 32.2016 5.69411C32.9698 6.03966 33.5594 6.54011 33.9703 7.20739C34.3813 7.8687 34.5897 8.66704 34.5897 9.59646C34.5897 10.2339 34.4587 10.8476 34.1907 11.4434C33.9227 12.0391 33.4879 12.5575 32.8864 13.0043C32.2849 13.4511 31.481 13.7907 30.4864 14.0112C30.0874 14.0648 29.6407 14.1244 29.1464 14.1899C28.6462 14.2614 28.0625 14.315 27.3896 14.3567C26.7166 14.3984 25.9066 14.4223 24.9657 14.4223V12.9745C25.2575 12.9745 25.5612 12.9745 25.8709 12.9864C26.1806 12.9924 26.5081 13.0043 26.8536 13.0103C27.199 13.0162 27.5563 13.0222 27.9255 13.0222H29.0749C29.867 13.0222 30.534 12.9209 31.076 12.7124C31.6179 12.5039 32.0348 12.1881 32.3266 11.7591C32.6185 11.3302 32.7673 10.7701 32.7673 10.079C32.7673 9.25091 32.4874 8.58959 31.9276 8.08914C31.3678 7.58868 30.3554 7.33846 28.8963 7.33846C28.6402 7.33846 28.3067 7.33846 27.9017 7.35037C27.4968 7.36229 27.0739 7.36229 26.6213 7.36229C26.1687 7.36229 25.7697 7.36229 25.4064 7.3742C25.0431 7.38612 24.787 7.38612 24.6322 7.38612L25.4302 6.53416V21.0711L24.8644 20.4515C25.4481 20.4873 26.127 20.5171 26.9012 20.5409C27.6754 20.5647 28.4318 20.5767 29.1702 20.5767C30.4626 20.5767 31.4631 20.3205 32.1777 19.8021C32.8924 19.2838 33.2497 18.4795 33.2497 17.3773C33.2497 16.6207 33.0532 16.0428 32.6661 15.6496C32.279 15.2564 31.7787 14.9763 31.1713 14.8214C30.5579 14.6665 29.9087 14.5891 29.2238 14.5891H28.4079C28.1399 14.5891 27.8839 14.5891 27.6337 14.601C27.3836 14.607 27.1275 14.6129 26.8595 14.6129C26.5915 14.6129 26.3235 14.6129 26.0436 14.6248C25.7697 14.6308 25.4778 14.6367 25.1682 14.6367V13.5524C25.5493 13.5346 25.9126 13.5286 26.264 13.5286C26.6153 13.5286 27.0441 13.5286 27.5563 13.5167C28.0625 13.5107 28.6462 13.5048 29.3013 13.5048C29.867 13.5048 30.5043 13.5703 31.201 13.7014C31.8978 13.8324 32.5589 14.0529 33.1902 14.3746C33.8155 14.6963 34.3396 15.1312 34.7505 15.6913C35.1614 16.2513 35.3699 16.9603 35.3699 17.8242L35.3639 17.8301Z" fill="#E58257"/>
<path d="M43.773 8.30273C45.2023 8.30273 46.4232 8.57083 47.4416 9.10108C48.46 9.63728 49.2342 10.3939 49.7761 11.3889C50.3181 12.3779 50.592 13.5873 50.592 15.0172C50.592 16.3577 50.3955 17.5313 50.0084 18.5322C49.6213 19.5332 49.0912 20.3613 48.4183 21.0226C47.7453 21.6839 46.983 22.1784 46.1195 22.5061C45.2559 22.8338 44.3566 22.9946 43.4097 22.9946C41.9983 22.9946 40.7834 22.7265 39.759 22.1963C38.7347 21.6601 37.9486 20.8915 37.3947 19.8847C36.8408 18.8778 36.5669 17.6684 36.5669 16.2564C36.5669 14.8444 36.7575 13.7422 37.1327 12.7413C37.5138 11.7404 38.0379 10.9182 38.7049 10.2628C39.3779 9.60749 40.1521 9.11895 41.0275 8.79127C41.903 8.46359 42.8201 8.30273 43.7671 8.30273H43.773ZM43.4395 10.4177C42.302 10.4177 41.367 10.6203 40.6226 11.0254C39.8841 11.4306 39.3421 12.0204 38.9967 12.7949C38.6513 13.5694 38.4786 14.5227 38.4786 15.6606C38.4786 16.7092 38.6573 17.6267 39.0205 18.4131C39.3838 19.1995 39.9436 19.8013 40.7 20.2362C41.4563 20.6651 42.4628 20.8796 43.7194 20.8796C44.8569 20.8796 45.7919 20.677 46.5363 20.2719C47.2748 19.8668 47.8168 19.2651 48.1622 18.4667C48.5076 17.6684 48.6803 16.6973 48.6803 15.5593C48.6803 14.5107 48.5016 13.5992 48.1503 12.8247C47.7989 12.0502 47.2391 11.4544 46.4708 11.0433C45.7026 10.6322 44.6961 10.4237 43.4395 10.4237V10.4177Z" fill="#E58257"/>
<path d="M54.0761 8.50493H59.8053V10.6199H50.8721V9.45817L53.1709 8.70749L55.1302 5.8418H55.2315L55.0766 10.1791V18.1089C55.0766 18.8655 55.1719 19.4494 55.3625 19.8545C55.5531 20.2596 55.8449 20.5277 56.2379 20.6707C56.631 20.8077 57.1253 20.8792 57.7089 20.8792C58.1556 20.8792 58.5606 20.8554 58.9239 20.8018C59.2871 20.7482 59.6147 20.6886 59.9065 20.6231V22.6904C59.6504 22.7738 59.3407 22.8513 58.9894 22.9108C58.638 22.9704 58.1913 23.0002 57.6613 23.0002C56.6787 23.0002 55.8508 22.8513 55.1719 22.5474C54.493 22.2495 53.9868 21.7491 53.6473 21.052C53.3079 20.355 53.153 19.4017 53.1709 18.1982L53.3019 9.60116L54.0761 8.51684V8.50493Z" fill="#E58257"/>
<path d="M64.7724 8.50493H70.5016V10.6199H61.5684V9.45817L63.8672 8.70749L65.8265 5.8418H65.9278L65.7729 10.1791V18.1089C65.7729 18.8655 65.8682 19.4494 66.0588 19.8545C66.2494 20.2596 66.5412 20.5277 66.9342 20.6707C67.3273 20.8077 67.8216 20.8792 68.4052 20.8792C68.8519 20.8792 69.2569 20.8554 69.6202 20.8018C69.9834 20.7482 70.311 20.6886 70.6028 20.6231V22.6904C70.3467 22.7738 70.037 22.8513 69.6857 22.9108C69.3343 22.9704 68.8876 23.0002 68.3576 23.0002C67.3749 23.0002 66.5471 22.8513 65.8682 22.5474C65.1893 22.2495 64.6831 21.7491 64.3436 21.052C64.0041 20.355 63.8493 19.4017 63.8672 18.1982L63.9982 9.60116L64.7724 8.51684V8.50493Z" fill="#E58257"/>
<path d="M74.8132 11.7877L75.0454 22.762H72.8002L72.9551 12.0677L72.5918 3H74.8132V11.7818V11.7877Z" fill="#E58257"/>
<path d="M89.0108 19.6111V21.7559C88.32 22.0657 87.5279 22.3457 86.6346 22.596C85.7412 22.8462 84.7765 22.9772 83.7462 22.9951C82.3168 22.9951 81.09 22.7211 80.0657 22.167C79.0413 21.6189 78.2612 20.8086 77.7311 19.7541C77.1951 18.6936 76.9331 17.3829 76.9331 15.816C76.9331 14.5053 77.1356 13.3733 77.5406 12.4201C77.9455 11.4668 78.4756 10.6863 79.1426 10.0846C79.8036 9.48287 80.554 9.03008 81.3878 8.72623C82.2216 8.42238 83.0851 8.27344 83.9844 8.27344C85.2588 8.27344 86.2951 8.48792 87.0931 8.91688C87.8912 9.34584 88.4808 9.97141 88.8619 10.7876C89.2431 11.6038 89.4277 12.6107 89.4277 13.7963C89.4277 14.0048 89.4277 14.2193 89.4158 14.4397C89.4038 14.6661 89.386 14.8985 89.3503 15.1368L77.8622 15.0594L77.9158 13.7665L88.6832 13.6652L87.7304 14.3861C87.7959 13.421 87.6589 12.6465 87.3194 12.0626C86.974 11.4787 86.4678 11.0498 85.7948 10.7817C85.1219 10.5136 84.3298 10.3825 83.4186 10.3825C82.3704 10.3825 81.5009 10.5612 80.822 10.9127C80.1431 11.2642 79.6369 11.7945 79.3093 12.5035C78.9818 13.2124 78.821 14.0882 78.821 15.1368C78.821 16.2926 78.9997 17.2995 79.351 18.1574C79.7024 19.0213 80.2443 19.6826 80.9769 20.1592C81.7094 20.6299 82.6563 20.8682 83.8295 20.8682C84.7586 20.8682 85.6757 20.749 86.581 20.5048C87.4862 20.2665 88.2961 19.9626 89.0227 19.5992L89.0108 19.6111Z" fill="#E58257"/>
<path d="M109.861 22.9706L96.7471 7.60549L98.1645 6.62246L98.373 22.7621H96.2588L96.3898 5.12109H97.164L110.147 20.2837L109.063 20.6173L108.73 5.17471H110.82L110.665 22.9706H109.867H109.861Z" fill="#E58257"/>
<path d="M120.015 8.30273C121.445 8.30273 122.665 8.57083 123.684 9.10108C124.702 9.63728 125.476 10.3939 126.018 11.3889C126.56 12.3779 126.834 13.5873 126.834 15.0172C126.834 16.3577 126.638 17.5313 126.251 18.5322C125.863 19.5332 125.333 20.3613 124.66 21.0226C123.987 21.6839 123.225 22.1784 122.362 22.5061C121.498 22.8338 120.599 22.9946 119.652 22.9946C118.24 22.9946 117.026 22.7265 116.001 22.1963C114.977 21.6601 114.191 20.8915 113.637 19.8847C113.083 18.8778 112.809 17.6684 112.809 16.2564C112.809 14.8444 113 13.7422 113.375 12.7413C113.756 11.7404 114.28 10.9182 114.947 10.2628C115.62 9.60749 116.394 9.11895 117.27 8.79127C118.145 8.46359 119.062 8.30273 120.009 8.30273H120.015ZM119.682 10.4177C118.544 10.4177 117.609 10.6203 116.865 11.0254C116.126 11.4306 115.584 12.0204 115.239 12.7949C114.893 13.5694 114.721 14.5227 114.721 15.6606C114.721 16.7092 114.899 17.6267 115.263 18.4131C115.626 19.1995 116.186 19.8013 116.942 20.2362C117.699 20.6651 118.705 20.8796 119.962 20.8796C121.099 20.8796 122.034 20.677 122.779 20.2719C123.517 19.8668 124.059 19.2651 124.404 18.4667C124.75 17.6684 124.922 16.6973 124.922 15.5593C124.922 14.5107 124.744 13.5992 124.392 12.8247C124.041 12.0502 123.481 11.4544 122.713 11.0433C121.945 10.6322 120.938 10.4237 119.682 10.4237V10.4177Z" fill="#E58257"/>
<path d="M130.318 8.50493H136.047V10.6199H127.114V9.45817L129.413 8.70749L131.372 5.8418H131.473L131.318 10.1791V18.1089C131.318 18.8655 131.414 19.4494 131.604 19.8545C131.795 20.2596 132.087 20.5277 132.48 20.6707C132.873 20.8077 133.367 20.8792 133.951 20.8792C134.397 20.8792 134.802 20.8554 135.166 20.8018C135.529 20.7482 135.856 20.6886 136.148 20.6231V22.6904C135.892 22.7738 135.582 22.8513 135.231 22.9108C134.88 22.9704 134.433 23.0002 133.903 23.0002C132.92 23.0002 132.093 22.8513 131.414 22.5474C130.735 22.2495 130.228 21.7491 129.889 21.052C129.55 20.355 129.395 19.4017 129.413 18.1982L129.544 9.60116L130.318 8.51684V8.50493Z" fill="#E58257"/>
<path d="M149.393 19.6111V21.7559C148.702 22.0657 147.91 22.3457 147.017 22.5959C146.124 22.8462 145.159 22.9772 144.128 22.9951C142.699 22.9951 141.472 22.7211 140.448 22.167C139.424 21.6189 138.644 20.8086 138.113 19.7541C137.577 18.6936 137.315 17.3829 137.315 15.816C137.315 14.5053 137.518 13.3733 137.923 12.4201C138.328 11.4668 138.858 10.6863 139.525 10.0846C140.186 9.48287 140.936 9.03008 141.77 8.72623C142.604 8.42238 143.467 8.27344 144.367 8.27344C145.641 8.27344 146.677 8.48792 147.475 8.91688C148.273 9.34584 148.863 9.97141 149.244 10.7876C149.625 11.6038 149.81 12.6107 149.81 13.7963C149.81 14.0048 149.81 14.2193 149.798 14.4397C149.786 14.6661 149.768 14.8985 149.733 15.1368L138.244 15.0594L138.298 13.7665L149.066 13.6652L148.113 14.3861C148.178 13.421 148.041 12.6465 147.702 12.0626C147.356 11.4787 146.85 11.0498 146.177 10.7817C145.504 10.5136 144.712 10.3825 143.801 10.3825C142.753 10.3825 141.883 10.5612 141.204 10.9127C140.525 11.2642 140.019 11.7945 139.692 12.5035C139.364 13.2124 139.203 14.0882 139.203 15.1368C139.203 16.2926 139.382 17.2995 139.733 18.1574C140.085 19.0213 140.627 19.6826 141.359 20.1592C142.092 20.6299 143.039 20.8682 144.212 20.8682C145.141 20.8682 146.058 20.749 146.963 20.5048C147.869 20.2665 148.678 19.9626 149.405 19.5992L149.393 19.6111Z" fill="#E58257"/>
<defs>
<linearGradient id="paint0_linear_4754_44697" x1="1.84203" y1="9.31667" x2="13.9754" y2="21.2358" gradientUnits="userSpaceOnUse">
<stop stop-color="#F0996E"/>
<stop offset="1" stop-color="#E58257"/>
</linearGradient>
</defs>
</svg>
