<svg width="30" height="30" viewBox="0 0 30 30" fill="none" xmlns="http://www.w3.org/2000/svg">
<path d="M18.6628 21.4762C22.3 17.7244 24.524 17.6505 21.763 11.2645C19.1908 3.22357 23.0646 2.91736 16.918 3.01155H13.0993C6.92576 2.91624 10.8121 3.2262 8.23765 11.2645C5.47403 17.6426 7.70339 17.7293 11.3365 21.4766C11.3365 22.0833 10.8534 23.0605 10.2496 23.9705C7.86743 27.1969 12.306 27.0453 14.9997 26.9702C17.7023 27.0535 22.1297 27.1819 19.7497 23.9708C19.146 23.0609 18.6628 22.0833 18.6624 21.4766L18.6628 21.4762ZM15.0001 20.4086C14.4981 20.4086 14.006 20.3313 13.5542 20.218C12.4355 19.938 11.423 19.3905 10.6037 18.6528C10.2738 18.3556 9.9193 18.0126 9.55312 17.6047C8.87633 16.8505 8.85168 15.8181 9.07489 14.7232H20.9245C21.1477 15.8178 21.123 16.8505 20.4462 17.6047C20.08 18.0126 19.726 18.3556 19.3961 18.6528C18.5768 19.3905 17.5643 19.9376 16.4456 20.218C15.9942 20.3309 15.5017 20.4086 14.9997 20.4086H15.0001Z" fill="#E58257"/>
</svg>
