<svg width="24" height="23" viewBox="0 0 24 23" fill="none" xmlns="http://www.w3.org/2000/svg">
<path d="M12.6937 0.5C12.9409 0.566459 13.2238 0.557865 13.482 0.59224C18.3156 1.23219 22.2771 5.18134 22.9082 10.0202C22.9421 10.2786 22.9346 10.5611 23 10.8086V12.183C22.934 12.4305 22.9421 12.7135 22.9082 12.9714C22.2691 17.8017 18.3173 21.768 13.482 22.3994C13.2238 22.4332 12.9409 22.4257 12.6937 22.4916C12.2393 22.4721 11.7723 22.518 11.3196 22.4916C5.39993 22.1456 0.750491 16.9222 1.01039 10.9999C1.25307 5.46952 5.79236 0.823701 11.3196 0.5H12.6937ZM11.3621 1.83147C6.61737 2.04001 2.55198 6.10604 2.34372 10.8515H4.55541C4.58467 10.8515 4.85834 11.0206 4.89735 11.0681C5.10332 11.3162 5.0993 11.7104 4.87842 11.9481C4.84744 11.9813 4.57377 12.14 4.55541 12.14H2.34372C2.55255 16.8861 6.61794 20.951 11.3621 21.1601V18.9481C11.3621 18.9189 11.5313 18.6456 11.5783 18.606C11.8262 18.4004 12.2209 18.4038 12.4584 18.6249C12.4917 18.6559 12.6506 18.9292 12.6506 18.9481V21.1601C17.3706 20.9716 21.4791 16.8592 21.669 12.14H19.4573C19.428 12.14 19.1543 11.971 19.1153 11.9235C18.9094 11.6754 18.9134 11.2812 19.1343 11.0435C19.1652 11.0102 19.4389 10.8515 19.4573 10.8515H21.669C21.4601 6.10718 17.3953 2.03887 12.6506 1.83147V4.04352C12.6506 4.07274 12.4814 4.34602 12.4343 4.38555C12.1865 4.59123 11.7918 4.5878 11.5542 4.36665C11.521 4.33571 11.3621 4.06243 11.3621 4.04352V1.83147Z" fill="#E58257" stroke="#E58257" stroke-width="0.55"/>
<path d="M13.9244 13.4141L6.89745 17.4464C6.30078 17.6039 5.89057 17.1593 6.07014 16.5761L10.0885 9.57785L17.0569 5.57313C17.6496 5.35083 18.1441 5.80287 17.9433 6.41647L13.9244 13.4141ZM8.44248 15.0607L12.3926 12.8057L10.6972 11.1098L8.44248 15.0607Z" fill="#E58257"/>
</svg>
