<svg width="26" height="26" viewBox="0 0 26 26" fill="none" xmlns="http://www.w3.org/2000/svg">
<path d="M15.8701 2.1665C16.1161 2.1665 16.3548 2.25022 16.5469 2.4039L21.2603 6.17457C21.5172 6.38016 21.6668 6.69141 21.6668 7.02051V22.7498C21.6668 23.3481 21.1818 23.8332 20.5835 23.8332H5.41683C4.81852 23.8332 4.3335 23.3481 4.3335 22.7498V3.24984C4.3335 2.65153 4.81852 2.1665 5.41683 2.1665H15.8701ZM6.50016 4.33317V21.6665H19.5002V9.74984H15.7085C14.8638 9.74984 14.1697 9.10537 14.0909 8.28134L14.0835 8.12484V4.33317H6.50016ZM19.5002 7.54092L16.2502 4.94092V7.58317H19.5002V7.54092Z" fill="#E58257"/>
<rect x="8.31982" y="10.3999" width="9.53333" height="2.16667" fill="#E58257"/>
<rect x="8.31982" y="14.2998" width="9.53333" height="2.16667" fill="#E58257"/>
<path d="M8.31982 6.5H15.1664V8.66667H8.31982V6.5Z" fill="#E58257"/>
</svg>
