<svg width="26" height="26" viewBox="0 0 26 26" fill="none" xmlns="http://www.w3.org/2000/svg">
<path d="M6.49985 22.7494C5.90154 22.7494 5.41652 22.2644 5.41652 21.6661L5.4165 11.4383L3.96958 12.7258C3.55679 13.0927 2.94159 13.0866 2.53675 12.7318L2.44016 12.6358C2.07324 12.2231 2.07933 11.6079 2.43416 11.203L2.53012 11.1064L11.5604 3.07951C12.333 2.39272 13.4743 2.35232 14.2903 2.95831L14.4393 3.07951L23.4696 11.1064C23.9168 11.5039 23.957 12.1887 23.5595 12.6358C23.1926 13.0486 22.5809 13.1147 22.1373 12.8098L22.0301 12.7258L20.5832 11.4394L20.5832 21.6661C20.5832 22.2217 20.165 22.6796 19.6262 22.7422L19.4999 22.7494H6.49985ZM12.9998 4.69786L7.56177 9.53406C7.57581 9.60367 7.58318 9.67569 7.58318 9.74944L7.58317 20.5827H18.4165L18.4165 9.74944C18.4165 9.67532 18.424 9.60293 18.4381 9.53299L12.9998 4.69786Z" fill="#E58257"/>
</svg>
