<svg width="16" height="17" viewBox="0 0 16 17" fill="none" xmlns="http://www.w3.org/2000/svg">
<path fill-rule="evenodd" clip-rule="evenodd" d="M2.13676 13.1912C2.18722 13.8291 2.76757 14.1872 3.43302 13.9911L5.57187 13.3607C5.81402 13.2894 6.04502 13.1497 6.23475 12.96L11.3807 7.81403L8.3637 4.79704L3.21776 9.94298C3.02804 10.1327 2.88838 10.3637 2.81701 10.6059L2.18666 12.7447C2.14226 12.8954 2.12534 13.0468 2.13676 13.1912ZM9.48335 3.6774L12.5003 6.69439L14.0566 5.13816C14.4629 4.73181 14.6159 4.16331 14.4364 3.72682L14.257 3.29058C13.9979 2.66048 13.5173 2.1798 12.8872 1.92069L12.4509 1.7413C12.0144 1.56181 11.4459 1.71482 11.0396 2.12117L9.48335 3.6774Z" fill="#E58257"/>
</svg>
