<svg width="26" height="26" viewBox="0 0 26 26" fill="none" xmlns="http://www.w3.org/2000/svg">
<path d="M12.025 3.25C16.8713 3.25 20.8 7.19949 20.8 12.0714C20.8 14.4118 19.8934 16.5393 18.414 18.1184C18.4349 18.1296 18.454 18.1434 18.4726 18.1579L18.5644 18.2395L22.4644 22.1601C22.8452 22.5429 22.8452 23.1635 22.4644 23.5463C22.113 23.8996 21.5599 23.9268 21.1774 23.6278L21.0856 23.5463L17.1856 19.6256C17.102 19.5416 17.0368 19.4462 16.99 19.3444C15.5795 20.3213 13.8687 20.8929 12.025 20.8929C7.1787 20.8929 3.25 16.9434 3.25 12.0714C3.25 7.19949 7.1787 3.25 12.025 3.25ZM12.025 5.21032C8.25566 5.21032 5.2 8.28214 5.2 12.0714C5.2 15.8607 8.25566 18.9325 12.025 18.9325C15.7943 18.9325 18.85 15.8607 18.85 12.0714C18.85 8.28214 15.7943 5.21032 12.025 5.21032Z" fill="#E58257"/>
</svg>
