<svg width="24" height="23" viewBox="0 0 24 23" fill="none" xmlns="http://www.w3.org/2000/svg">
<path d="M11.7644 18.4011L5.35167 21.728C5.26588 21.7725 5.16025 21.7391 5.11574 21.6533C5.09832 21.6197 5.09225 21.5814 5.09844 21.5441L6.28094 14.4171C6.29647 14.3235 6.2655 14.2282 6.19793 14.1616L1.05217 9.0909C0.983326 9.02306 0.982513 8.91226 1.05035 8.84342C1.07691 8.81647 1.11148 8.79885 1.14889 8.79321L8.29241 7.71549C8.38622 7.70134 8.46729 7.64244 8.50974 7.55759L11.7422 1.09674C11.7854 1.0103 11.8906 0.975288 11.977 1.01853C12.0108 1.03546 12.0383 1.0629 12.0552 1.09674L15.2876 7.55759C15.3301 7.64244 15.4111 7.70134 15.505 7.71549L22.6485 8.79321C22.744 8.80763 22.8098 8.89679 22.7954 8.99236C22.7898 9.02977 22.7722 9.06434 22.7452 9.0909L17.5994 14.1616C17.5319 14.2282 17.5009 14.3235 17.5164 14.4171L18.6989 21.5441C18.7147 21.6394 18.6503 21.7295 18.5549 21.7453C18.5176 21.7515 18.4793 21.7455 18.4457 21.728L12.033 18.4011C11.9488 18.3574 11.8486 18.3574 11.7644 18.4011Z" fill="#E58257" stroke="#E58257" stroke-width="1.5" stroke-linejoin="round"/>
</svg>
