<svg width="26" height="26" viewBox="0 0 26 26" fill="none" xmlns="http://www.w3.org/2000/svg">
<path d="M12.8557 14.8057C17.9531 14.8057 22.1018 18.8679 22.241 23.9317L22.2446 24.1945H20.3668C20.3668 20.0463 17.004 16.6834 12.8557 16.6834C8.78568 16.6834 5.47175 19.9206 5.34815 23.9606L5.34457 24.1945H3.4668C3.4668 19.0092 7.67035 14.8057 12.8557 14.8057ZM12.8557 2.6001C15.9669 2.6001 18.489 5.12223 18.489 8.23343C18.489 11.3446 15.9669 13.8668 12.8557 13.8668C9.74448 13.8668 7.22235 11.3446 7.22235 8.23343C7.22235 5.12223 9.74448 2.6001 12.8557 2.6001ZM12.8557 4.47788C10.7815 4.47788 9.10013 6.15929 9.10013 8.23343C9.10013 10.3076 10.7815 11.989 12.8557 11.989C14.9298 11.989 16.6112 10.3076 16.6112 8.23343C16.6112 6.15929 14.9298 4.47788 12.8557 4.47788Z" fill="#E58257"/>
</svg>
