<svg width="14" height="16" viewBox="0 0 14 16" fill="none" xmlns="http://www.w3.org/2000/svg">
<path fill-rule="evenodd" clip-rule="evenodd" d="M13.5118 5.36657C12.6299 4.53859 11.8662 3.7336 10.2441 3.64927C8.93703 3.59561 8.3386 4.36992 7.11813 4.39292C5.9764 4.43125 6.06301 3.54194 3.70081 3.79494C1.65356 4.01726 -0.133838 6.01055 0.00789452 8.80116C0.149627 11.8218 2.30711 16 4.33073 16C5.75593 15.9693 6.09451 15.31 7.25986 15.31C8.70868 15.31 9.04726 16.138 10.189 15.977C12.1496 15.701 14 12.6804 14 11.7144C12.9213 11.1624 11.8425 10.2195 11.7008 8.64016C11.5827 7.06086 12.5748 6.06422 13.5118 5.36657Z" fill="white"/>
<path fill-rule="evenodd" clip-rule="evenodd" d="M6.71661 3.87159C6.57488 2.76761 7.34653 0.360326 10.0473 0C10.3544 1.85529 8.79535 3.98658 6.71661 3.87159Z" fill="white"/>
</svg>
