<svg width="12" height="6" viewBox="0 0 12 6" fill="none" xmlns="http://www.w3.org/2000/svg">
<path d="M11.1658 0.531156C10.928 0.283213 10.525 0.266463 10.2657 0.493744L5.99992 4.23233L1.73416 0.493743C1.4964 0.285402 1.13796 0.282115 0.896745 0.473993L0.834043 0.531155C0.59629 0.779098 0.613811 1.16434 0.873178 1.39162L5.56943 5.50691C5.57242 5.50954 5.57544 5.51213 5.57847 5.51469L5.53029 5.4695C5.55703 5.49738 5.58586 5.52234 5.61634 5.54436C5.62765 5.55245 5.63909 5.56016 5.65072 5.56746C5.66248 5.57491 5.67464 5.58199 5.687 5.58865C5.69826 5.59469 5.70943 5.6003 5.72073 5.60557C5.73407 5.61179 5.74786 5.61764 5.76182 5.62301C5.77418 5.62779 5.7867 5.63217 5.79931 5.63617C5.81182 5.64007 5.82429 5.64361 5.83685 5.64678C5.8508 5.65035 5.8649 5.65341 5.87906 5.65602C5.89362 5.65865 5.90827 5.66084 5.92297 5.66254C5.93365 5.66381 5.94454 5.6648 5.95544 5.66553C5.97046 5.6665 5.98538 5.667 6.0003 5.66699C6.01491 5.66698 6.0296 5.66649 6.04427 5.66551C6.0553 5.6648 6.06618 5.66381 6.07705 5.66256C6.09157 5.66084 6.10622 5.65864 6.12078 5.65597C6.13494 5.65341 6.14904 5.65035 6.16304 5.64682C6.17555 5.64361 6.18802 5.64007 6.20039 5.63617C6.21314 5.63217 6.22565 5.62779 6.23805 5.62302C6.25197 5.61765 6.26577 5.61179 6.27937 5.60545C6.2904 5.6003 6.30158 5.59469 6.31261 5.58874C6.32519 5.58199 6.33736 5.57491 6.34931 5.5674C6.36075 5.56016 6.37218 5.55245 6.38341 5.54434C6.41398 5.52234 6.44281 5.49738 6.46954 5.4695L6.42136 5.51469C6.4244 5.51213 6.42741 5.50954 6.43041 5.50691L11.1267 1.39162C11.386 1.16434 11.4035 0.779098 11.1658 0.531156Z" fill="#E58257"/>
</svg>
