<svg width="22" height="22" viewBox="0 0 22 22" fill="none" xmlns="http://www.w3.org/2000/svg">
<path d="M17.4577 7.91419C17.1605 7.60426 16.6567 7.58332 16.3325 7.86742L11.0003 12.5407L5.66812 7.86742C5.37093 7.607 4.92288 7.60289 4.62136 7.84274L4.54298 7.91419C4.24579 8.22412 4.26769 8.70567 4.5919 8.98977L10.4622 14.1339C10.466 14.1372 10.4697 14.1404 10.4735 14.1436L10.4133 14.0871C10.4467 14.122 10.4828 14.1532 10.5208 14.1807C10.535 14.1908 10.5493 14.2004 10.5638 14.2096C10.5785 14.2189 10.5937 14.2277 10.6092 14.2361C10.6233 14.2436 10.6372 14.2506 10.6513 14.2572C10.668 14.265 10.6853 14.2723 10.7027 14.279C10.7182 14.285 10.7338 14.2905 10.7496 14.2955C10.7652 14.3003 10.7808 14.3048 10.7965 14.3087C10.8139 14.3132 10.8315 14.317 10.8493 14.3203C10.8675 14.3236 10.8858 14.3263 10.9041 14.3284C10.9175 14.33 10.9311 14.3312 10.9447 14.3322C10.9635 14.3334 10.9821 14.334 11.0008 14.334C11.0191 14.334 11.0374 14.3334 11.0558 14.3321C11.0696 14.3312 11.0832 14.33 11.0967 14.3284C11.1149 14.3263 11.1332 14.3236 11.1514 14.3202C11.1691 14.317 11.1867 14.3132 11.2042 14.3088C11.2199 14.3048 11.2355 14.3003 11.2509 14.2955C11.2669 14.2905 11.2825 14.285 11.298 14.279C11.3154 14.2723 11.3326 14.265 11.3496 14.2571C11.3634 14.2506 11.3774 14.2436 11.3912 14.2362C11.4069 14.2277 11.4221 14.2189 11.4371 14.2095C11.4514 14.2004 11.4657 14.1908 11.4797 14.1807C11.5179 14.1532 11.5539 14.122 11.5874 14.0871L11.5271 14.1436C11.5309 14.1404 11.5347 14.1372 11.5384 14.1339L17.4088 8.98978C17.733 8.70567 17.7549 8.22412 17.4577 7.91419Z" fill="#666666"/>
</svg>
