<svg width="12" height="6" viewBox="0 0 12 6" fill="none" xmlns="http://www.w3.org/2000/svg">
<path d="M1.05173 5.46884C1.28949 5.71679 1.69248 5.73354 1.95185 5.50626L6.21761 1.76767L10.4834 5.50626C10.7211 5.7146 11.0796 5.71789 11.3208 5.52601L11.3835 5.46885C11.6212 5.2209 11.6037 4.83566 11.3444 4.60838L6.6481 0.49309C6.6451 0.490465 6.64209 0.487872 6.63906 0.485312L6.68724 0.530502C6.6605 0.502618 6.63167 0.477659 6.60119 0.455642C6.58987 0.447547 6.57844 0.439843 6.56681 0.432542C6.55505 0.425094 6.54289 0.418012 6.53053 0.411353C6.51927 0.405309 6.5081 0.399699 6.4968 0.39443C6.48346 0.388209 6.46967 0.382356 6.45571 0.376991C6.44334 0.372207 6.43083 0.367826 6.41822 0.363835C6.40571 0.359927 6.39324 0.35639 6.38068 0.353224C6.36673 0.349654 6.35263 0.346587 6.33847 0.343984C6.32391 0.341355 6.30926 0.339164 6.29456 0.33746C6.28388 0.336188 6.27299 0.335198 6.26209 0.334475C6.24707 0.333498 6.23215 0.333004 6.21723 0.333009C6.20262 0.333019 6.18793 0.333513 6.17326 0.334489C6.16223 0.335198 6.15134 0.336188 6.14048 0.337445C6.12596 0.339164 6.11131 0.341355 6.09675 0.344034C6.08259 0.346587 6.06849 0.349653 6.05449 0.353185C6.04198 0.35639 6.02951 0.359927 6.01714 0.363834C6.00439 0.367826 5.99188 0.372207 5.97948 0.376977C5.96556 0.382355 5.95176 0.388209 5.93816 0.39455C5.92713 0.399699 5.91595 0.40531 5.90492 0.411261C5.89234 0.418012 5.88017 0.425093 5.86822 0.432596C5.85678 0.439843 5.84535 0.447548 5.83412 0.455657C5.80355 0.477659 5.77472 0.502618 5.74799 0.530502L5.79617 0.485312C5.79313 0.487872 5.79012 0.490465 5.78712 0.49309L1.09087 4.60838C0.831503 4.83566 0.813981 5.2209 1.05173 5.46884Z" fill="#E58257"/>
</svg>
