<svg width="14" height="14" viewBox="0 0 14 14" fill="none" xmlns="http://www.w3.org/2000/svg">
<path d="M10.4998 0.583313C10.822 0.583313 11.0832 0.84448 11.0832 1.16665V1.74998H12.2498C12.572 1.74998 12.8332 2.01115 12.8332 2.33331V12.25C12.8332 12.5721 12.572 12.8333 12.2498 12.8333H1.74984C1.42767 12.8333 1.1665 12.5721 1.1665 12.25V2.33331C1.1665 2.01115 1.42767 1.74998 1.74984 1.74998H2.9165V1.16665C2.9165 0.84448 3.17767 0.583313 3.49984 0.583313C3.822 0.583313 4.08317 0.84448 4.08317 1.16665V1.74998H9.9165V1.16665C9.9165 0.84448 10.1777 0.583313 10.4998 0.583313ZM11.6665 6.41665H2.33317V11.6666H11.6665V6.41665ZM2.9165 2.91665H2.33317V5.24998H11.6665V2.91665H11.0832C11.0832 3.23881 10.822 3.49998 10.4998 3.49998C10.1777 3.49998 9.9165 3.23881 9.9165 2.91665H4.08317C4.08317 3.23881 3.822 3.49998 3.49984 3.49998C3.17767 3.49998 2.9165 3.23881 2.9165 2.91665Z" fill="#E58257"/>
</svg>
