<svg width="12" height="13" viewBox="0 0 12 13" fill="none" xmlns="http://www.w3.org/2000/svg">
<path d="M1.35986 1.88049L10.6406 11.1613L1.35986 1.88049ZM9.97773 1.21758C10.3438 0.851464 10.9374 0.851464 11.3036 1.21758C11.6697 1.5837 11.6697 2.17729 11.3036 2.54341L7.3257 6.52049L11.3036 10.4984C11.6697 10.8645 11.6697 11.4581 11.3036 11.8242C10.9374 12.1903 10.3438 12.1903 9.97773 11.8242L5.99986 7.84633L2.02278 11.8242C1.68281 12.1641 1.14671 12.1884 0.77872 11.897L0.696951 11.8242C0.330834 11.4581 0.330834 10.8645 0.696951 10.4984L4.67403 6.52049L0.696951 2.54341C0.330834 2.17729 0.330834 1.5837 0.696951 1.21758C1.06307 0.851464 1.65666 0.851464 2.02278 1.21758L5.99986 5.19466L9.97773 1.21758Z" fill="#666666"/>
</svg>
