<svg width="12" height="12" viewBox="0 0 12 12" fill="none" xmlns="http://www.w3.org/2000/svg">
<path d="M5.8999 0.900391C8.93747 0.900391 11.3999 2.94874 11.3999 5.4755C11.3999 8.00226 8.93747 10.0506 5.8999 10.0506C5.58528 10.0506 5.27684 10.0286 4.97666 9.98643L2.03211 11.8665C1.97393 11.9036 1.89666 11.8866 1.85952 11.8284C1.83925 11.7967 1.83437 11.7575 1.84624 11.7218C2.06781 11.0545 2.17498 10.4153 2.16776 9.80434C2.16353 9.44616 2.11987 9.08845 2.03679 8.73122C1.02592 7.9019 0.399902 6.74951 0.399902 5.4755C0.399902 2.94874 2.86234 0.900391 5.8999 0.900391Z" fill="#BFBFBF"/>
</svg>
