<svg width="26" height="27" viewBox="0 0 26 27" fill="none" xmlns="http://www.w3.org/2000/svg">
<path d="M15.8699 2.48291C16.1159 2.48291 16.3546 2.56663 16.5467 2.7203L21.26 6.49098C21.517 6.69657 21.6666 7.00782 21.6666 7.33692V23.0662C21.6666 23.6646 21.1816 24.1496 20.5833 24.1496H5.41659C4.81828 24.1496 4.33325 23.6646 4.33325 23.0662V3.56624C4.33325 2.96793 4.81828 2.48291 5.41659 2.48291H15.8699ZM6.49992 4.64958V21.9829H19.4999V10.0662H15.7083C14.8636 10.0662 14.1694 9.42178 14.0907 8.59774L14.0833 8.44124V4.64958H6.49992ZM19.4999 7.85733L16.2499 5.25733V7.89958H19.4999V7.85733Z" fill="#E58257"/>
<rect x="8.32007" y="10.7163" width="9.53333" height="2.16667" fill="#E58257"/>
<rect x="8.32007" y="14.6162" width="9.53333" height="2.16667" fill="#E58257"/>
<path d="M8.32007 6.81641H15.1667V8.98307H8.32007V6.81641Z" fill="#E58257"/>
</svg>
