<svg width="16" height="17" viewBox="0 0 16 17" fill="none" xmlns="http://www.w3.org/2000/svg">
<path d="M3.54147 14.0724C2.81792 14.2093 2.1204 13.7337 1.98352 13.0102C1.95253 12.8464 1.95253 12.6782 1.98352 12.5144L2.42349 10.1889C2.47331 9.92556 2.6013 9.68338 2.79078 9.4939L10.6023 1.68236C11.0081 1.27655 11.6281 1.17594 12.1414 1.4326L12.6544 1.68912C13.3954 2.05962 13.9963 2.66047 14.3668 3.40147L14.6233 3.9145C14.88 4.42782 14.7794 5.04778 14.3736 5.4536L6.56201 13.2651C6.37253 13.4546 6.13036 13.5826 5.86706 13.6324L3.54147 14.0724ZM10.2354 3.93582L12.121 5.82143L13.4307 4.51079L13.1742 3.99776C12.9327 3.51479 12.5411 3.12317 12.0582 2.88169L11.5451 2.62517L10.2354 3.93582ZM3.7027 10.6024L5.45444 12.3542L5.61921 12.3223L11.1782 6.76424L9.29261 4.87862L3.73359 10.4367L3.7027 10.6024Z" fill="#E58257"/>
</svg>
