<svg width="10" height="2" viewBox="0 0 10 2" fill="none" xmlns="http://www.w3.org/2000/svg">
<path d="M2.77905 1C2.77905 1.55228 2.33134 2 1.77905 2C1.22677 2 0.779053 1.55228 0.779053 1C0.779053 0.447715 1.22677 -3.73832e-07 1.77905 -3.49691e-07C2.33134 -3.2555e-07 2.77905 0.447715 2.77905 1ZM6.27905 1C6.27905 1.55228 5.83134 2 5.27905 2C4.72677 2 4.27905 1.55228 4.27905 1C4.27905 0.447715 4.72677 -2.20842e-07 5.27905 -1.96701e-07C5.83134 -1.7256e-07 6.27905 0.447715 6.27905 1ZM9.77905 1C9.77905 1.55229 9.33134 2 8.77905 2C8.22677 2 7.77905 1.55229 7.77905 1C7.77905 0.447715 8.22677 -6.78525e-08 8.77905 -4.37114e-08C9.33134 -1.95703e-08 9.77905 0.447715 9.77905 1Z" fill="#E58257"/>
</svg>
