<svg width="10" height="3" viewBox="0 0 10 3" fill="none" xmlns="http://www.w3.org/2000/svg">
<path d="M2.10522 1.5C2.10522 2.05228 1.65751 2.5 1.10522 2.5C0.552939 2.5 0.105225 2.05228 0.105225 1.5C0.105225 0.947715 0.552939 0.5 1.10522 0.5C1.65751 0.5 2.10522 0.947715 2.10522 1.5ZM5.60522 1.5C5.60522 2.05228 5.15751 2.5 4.60522 2.5C4.05294 2.5 3.60522 2.05228 3.60522 1.5C3.60522 0.947715 4.05294 0.5 4.60522 0.5C5.15751 0.5 5.60522 0.947715 5.60522 1.5ZM9.10522 1.5C9.10522 2.05229 8.65751 2.5 8.10522 2.5C7.55294 2.5 7.10522 2.05228 7.10522 1.5C7.10522 0.947715 7.55294 0.5 8.10522 0.5C8.65751 0.5 9.10522 0.947715 9.10522 1.5Z" fill="#666666"/>
</svg>
