<svg width="22" height="22" viewBox="0 0 22 22" fill="none" xmlns="http://www.w3.org/2000/svg">
<path d="M14.6666 15.5833C15.3448 15.5833 15.9369 15.9516 16.2541 16.499L19.2499 16.5C19.7562 16.5 20.1666 16.9104 20.1666 17.4167C20.1666 17.9229 19.7562 18.3333 19.2499 18.3333L16.2546 18.3334C15.9376 18.8813 15.3451 19.25 14.6666 19.25C13.988 19.25 13.3956 18.8813 13.0786 18.3334L2.74992 18.3333C2.24366 18.3333 1.83325 17.9229 1.83325 17.4167C1.83325 16.9104 2.24366 16.5 2.74992 16.5L13.0791 16.499C13.3962 15.9516 13.9884 15.5833 14.6666 15.5833ZM7.33325 9.16667C8.01144 9.16667 8.60361 9.53491 8.92075 10.0823L19.2499 10.0833C19.7562 10.0833 20.1666 10.4937 20.1666 11C20.1666 11.5063 19.7562 11.9167 19.2499 11.9167L8.92128 11.9167C8.60428 12.4647 8.01182 12.8333 7.33325 12.8333C6.65469 12.8333 6.06223 12.4647 5.74522 11.9167L2.74992 11.9167C2.24366 11.9167 1.83325 11.5063 1.83325 11C1.83325 10.4937 2.24366 10.0833 2.74992 10.0833L5.74576 10.0823C6.06289 9.53491 6.65507 9.16667 7.33325 9.16667ZM14.6666 2.75C15.3448 2.75 15.9369 3.11824 16.2541 3.66568L19.2499 3.66667C19.7562 3.66667 20.1666 4.07707 20.1666 4.58333C20.1666 5.08959 19.7562 5.5 19.2499 5.5L16.2546 5.50007C15.9376 6.04801 15.3451 6.41667 14.6666 6.41667C13.988 6.41667 13.3956 6.04801 13.0786 5.50007L2.74992 5.5C2.24366 5.5 1.83325 5.08959 1.83325 4.58333C1.83325 4.07707 2.24366 3.66667 2.74992 3.66667L13.0791 3.66568C13.3962 3.11824 13.9884 2.75 14.6666 2.75Z" fill="#E58257"/>
</svg>
