<svg width="14" height="14" viewBox="0 0 14 14" fill="none" xmlns="http://www.w3.org/2000/svg">
<path d="M6.66667 0C10.3486 0 13.3333 2.98477 13.3333 6.66667C13.3333 10.3486 10.3486 13.3333 6.66667 13.3333C2.98477 13.3333 0 10.3486 0 6.66667C0 2.98477 2.98477 0 6.66667 0ZM6.61894 9.44444C6.30553 9.44444 6.05145 9.69318 6.05145 10C6.05145 10.3068 6.30553 10.5556 6.61894 10.5556C6.93235 10.5556 7.18643 10.3068 7.18643 10C7.18643 9.69318 6.93235 9.44444 6.61894 9.44444ZM6.61894 3.33333C5.64742 3.33333 4.79322 3.93631 4.47661 4.81956C4.37283 5.10907 4.52844 5.42613 4.82418 5.52773C5.11991 5.62933 5.44378 5.47699 5.54756 5.18747C5.70578 4.74608 6.13309 4.44444 6.61894 4.44444C7.24577 4.44444 7.75391 4.94191 7.75391 5.55556C7.75391 6.16921 7.24577 6.66667 6.61894 6.66667H6.61722H6.60701C6.30018 6.66667 6.05145 6.9154 6.05145 7.22222V8.33333C6.05145 8.64016 6.30018 8.88889 6.60701 8.88889C6.91383 8.88889 7.16256 8.64016 7.16256 8.33333L7.16256 7.71365C8.15369 7.47518 8.88889 6.59942 8.88889 5.55556C8.88889 4.32826 7.8726 3.33333 6.61894 3.33333Z" fill="#E58257"/>
</svg>
