<svg width="23" height="23" viewBox="0 0 23 23" fill="none" xmlns="http://www.w3.org/2000/svg">
<path d="M11.6523 1.70846V21.396V1.70846ZM21.4961 10.146C22.2727 10.146 22.9023 10.7756 22.9023 11.5522C22.9023 12.3289 22.2727 12.9585 21.4961 12.9585L13.0586 12.9576L13.0586 21.396C13.0586 22.1726 12.429 22.8022 11.6523 22.8022C10.8757 22.8022 10.2461 22.1726 10.2461 21.396L10.2461 12.9576L1.80859 12.9585C1.08742 12.9585 0.493038 12.4156 0.411805 11.7162L0.402344 11.5522C0.402344 10.7756 1.03194 10.146 1.80859 10.146L10.2461 10.1451L10.2461 1.70846C10.2461 0.931814 10.8757 0.302214 11.6523 0.302214C12.429 0.302214 13.0586 0.931814 13.0586 1.70846L13.0586 10.1451L21.4961 10.146Z" fill="#E58257"/>
</svg>
