<svg width="14" height="14" viewBox="0 0 14 14" fill="none" xmlns="http://www.w3.org/2000/svg">
<path d="M7.20475 0.333008C10.8867 0.333008 13.8714 3.31778 13.8714 6.99967C13.8714 10.6816 10.8867 13.6663 7.20475 13.6663C3.52285 13.6663 0.538086 10.6816 0.538086 6.99967C0.538086 3.31778 3.52285 0.333008 7.20475 0.333008ZM7.15703 9.77745C6.84361 9.77745 6.58954 10.0262 6.58954 10.333C6.58954 10.6398 6.84361 10.8886 7.15703 10.8886C7.47044 10.8886 7.72451 10.6398 7.72451 10.333C7.72451 10.0262 7.47044 9.77745 7.15703 9.77745ZM7.15703 3.66634C6.1855 3.66634 5.3313 4.26932 5.0147 5.15257C4.91092 5.44208 5.06653 5.75914 5.36227 5.86074C5.658 5.96233 5.98187 5.80999 6.08565 5.52048C6.24386 5.07909 6.67118 4.77745 7.15703 4.77745C7.78385 4.77745 8.292 5.27491 8.292 5.88856C8.292 6.50221 7.78385 6.99967 7.15703 6.99967H7.15531H7.14509C6.83827 6.99967 6.58954 7.24841 6.58954 7.55523V8.66634C6.58954 8.97317 6.83827 9.2219 7.14509 9.2219C7.45192 9.2219 7.70065 8.97317 7.70065 8.66634L7.70064 8.04665C8.69178 7.80819 9.42698 6.93243 9.42698 5.88856C9.42698 4.66126 8.41068 3.66634 7.15703 3.66634Z" fill="#666666"/>
</svg>
