<svg width="14" height="15" viewBox="0 0 14 15" fill="none" xmlns="http://www.w3.org/2000/svg">
<path d="M7.24992 0.833008C10.9318 0.833008 13.9166 3.81778 13.9166 7.49967C13.9166 11.1816 10.9318 14.1663 7.24992 14.1663C3.56802 14.1663 0.583252 11.1816 0.583252 7.49967C0.583252 3.81778 3.56802 0.833008 7.24992 0.833008ZM7.20219 10.2775C6.88878 10.2775 6.6347 10.5262 6.6347 10.833C6.6347 11.1398 6.88878 11.3886 7.20219 11.3886C7.51561 11.3886 7.76968 11.1398 7.76968 10.833C7.76968 10.5262 7.51561 10.2775 7.20219 10.2775ZM7.20219 4.16634C6.23067 4.16634 5.37647 4.76932 5.05986 5.65257C4.95609 5.94208 5.1117 6.25914 5.40743 6.36074C5.70317 6.46233 6.02703 6.30999 6.13081 6.02048C6.28903 5.57909 6.71634 5.27745 7.20219 5.27745C7.82902 5.27745 8.33717 5.77491 8.33717 6.38856C8.33717 7.00221 7.82902 7.49967 7.20219 7.49967H7.20047H7.19026C6.88343 7.49967 6.6347 7.74841 6.6347 8.05523V9.16634C6.6347 9.47317 6.88343 9.7219 7.19026 9.7219C7.49708 9.7219 7.74582 9.47317 7.74582 9.16634L7.74581 8.54665C8.73694 8.30819 9.47214 7.43243 9.47214 6.38856C9.47214 5.16126 8.45585 4.16634 7.20219 4.16634Z" fill="#E58257"/>
</svg>
