<svg width="10" height="11" viewBox="0 0 10 11" fill="none" xmlns="http://www.w3.org/2000/svg">
<path d="M5 6.08696C7.1717 6.08696 8.93917 7.78 8.99846 9.89047L9 10H8.2C8.2 8.27111 6.76731 6.86957 5 6.86957C3.26603 6.86957 1.85418 8.21872 1.80152 9.90249L1.8 10H1C1 7.83889 2.79086 6.08696 5 6.08696ZM5 1C6.32548 1 7.4 2.05116 7.4 3.34783C7.4 4.64449 6.32548 5.69565 5 5.69565C3.67452 5.69565 2.6 4.64449 2.6 3.34783C2.6 2.05116 3.67452 1 5 1ZM5 1.78261C4.11634 1.78261 3.4 2.48338 3.4 3.34783C3.4 4.21227 4.11634 4.91304 5 4.91304C5.88366 4.91304 6.6 4.21227 6.6 3.34783C6.6 2.48338 5.88366 1.78261 5 1.78261Z" fill="#101010" stroke="#101010" stroke-width="0.3"/>
</svg>
