<svg width="7" height="8" viewBox="0 0 7 8" fill="none" xmlns="http://www.w3.org/2000/svg">
<path d="M3.33714 4.4384C4.97094 4.4384 6.30064 5.74041 6.34524 7.36343L6.3464 7.44766H5.74455C5.74455 6.11809 4.66671 5.04026 3.33714 5.04026C2.03265 5.04026 0.970495 6.0778 0.930878 7.37268L0.929733 7.44766H0.327881C0.327881 5.7857 1.67517 4.4384 3.33714 4.4384ZM3.33714 0.526367C4.33432 0.526367 5.1427 1.33474 5.1427 2.33192C5.1427 3.3291 4.33432 4.13748 3.33714 4.13748C2.33996 4.13748 1.53158 3.3291 1.53158 2.33192C1.53158 1.33474 2.33996 0.526367 3.33714 0.526367ZM3.33714 1.12822C2.67235 1.12822 2.13344 1.66714 2.13344 2.33192C2.13344 2.99671 2.67235 3.53563 3.33714 3.53563C4.00193 3.53563 4.54084 2.99671 4.54084 2.33192C4.54084 1.66714 4.00193 1.12822 3.33714 1.12822Z" fill="#666666"/>
</svg>
