<svg width="14" height="14" viewBox="0 0 14 14" fill="none" xmlns="http://www.w3.org/2000/svg">
<path fill-rule="evenodd" clip-rule="evenodd" d="M7.20475 13.6663C10.8867 13.6663 13.8714 10.6816 13.8714 6.99967C13.8714 3.31778 10.8867 0.333008 7.20475 0.333008C3.52285 0.333008 0.538086 3.31778 0.538086 6.99967C0.538086 10.6816 3.52285 13.6663 7.20475 13.6663ZM10.0332 4.17278C9.83794 3.97752 9.52135 3.97752 9.32609 4.17278L7.20457 6.29389L5.08345 4.17278C4.88819 3.97752 4.57161 3.97752 4.37635 4.17278C4.18108 4.36805 4.18108 4.68463 4.37635 4.87989L6.49745 7.001L4.37635 9.12253C4.18108 9.31779 4.18108 9.63437 4.37635 9.82964L4.41996 9.86849C4.61622 10.0239 4.90214 10.011 5.08345 9.82964L7.20457 7.70811L9.32609 9.82964C9.52135 10.0249 9.83794 10.0249 10.0332 9.82964C10.2285 9.63437 10.2285 9.31779 10.0332 9.12253L7.91168 7.001L10.0332 4.87989C10.2285 4.68463 10.2285 4.36805 10.0332 4.17278Z" fill="#666666"/>
</svg>
