<svg width="13" height="13" viewBox="0 0 13 13" fill="none" xmlns="http://www.w3.org/2000/svg">
<path d="M6.43221 10.2257L3.19606 11.9896C3.15277 12.0132 3.09946 11.9954 3.077 11.9499C3.06821 11.9321 3.06514 11.9118 3.06827 11.892L3.66501 8.11347C3.67285 8.06385 3.65722 8.01333 3.62312 7.97802L1.02633 5.28962C0.991586 5.25365 0.991175 5.19491 1.02541 5.15841C1.03881 5.14412 1.05626 5.13478 1.07514 5.13179L4.6801 4.56041C4.72744 4.5529 4.76835 4.52168 4.78977 4.47669L6.42101 1.05129C6.44284 1.00546 6.49589 0.986898 6.53951 1.00983C6.55658 1.0188 6.57043 1.03335 6.57897 1.05129L8.21022 4.47669C8.23164 4.52168 8.27255 4.5529 8.31989 4.56041L11.9248 5.13179C11.9731 5.13944 12.0063 5.18671 11.999 5.23738C11.9962 5.25721 11.9873 5.27554 11.9737 5.28962L9.37687 7.97802C9.34276 8.01333 9.32714 8.06385 9.33497 8.11347L9.93172 11.892C9.9397 11.9426 9.90717 11.9903 9.85905 11.9987C9.84022 12.002 9.82087 11.9988 9.80393 11.9896L6.56778 10.2257C6.52528 10.2025 6.47471 10.2025 6.43221 10.2257Z" fill="#252525" stroke="#252525" stroke-linejoin="round"/>
</svg>
