<svg width="10" height="10" viewBox="0 0 10 10" fill="none" xmlns="http://www.w3.org/2000/svg">
<path d="M5.26937 7.46043L2.70429 8.79122C2.66998 8.80902 2.62772 8.79563 2.60992 8.76132C2.60295 8.74788 2.60052 8.73255 2.603 8.71762L3.076 5.86685C3.08221 5.82942 3.06982 5.7913 3.04279 5.76466L0.98449 3.73636C0.956954 3.70923 0.956628 3.6649 0.983764 3.63737C0.994386 3.62659 1.00822 3.61954 1.02318 3.61728L3.88059 3.1862C3.91811 3.18054 3.95054 3.15698 3.96752 3.12304L5.2605 0.538695C5.27779 0.504121 5.31984 0.490115 5.35442 0.507413C5.36795 0.514185 5.37893 0.52516 5.3857 0.538695L6.67868 3.12304C6.69566 3.15698 6.72808 3.18054 6.76561 3.1862L9.62302 3.61728C9.66124 3.62305 9.68756 3.65872 9.68179 3.69694C9.67953 3.71191 9.67248 3.72574 9.6617 3.73636L7.6034 5.76466C7.57637 5.7913 7.56398 5.82942 7.5702 5.86685L8.0432 8.71762C8.04952 8.75576 8.02374 8.79181 7.9856 8.79814C7.97067 8.80061 7.95534 8.79819 7.9419 8.79122L5.37683 7.46043C5.34314 7.44296 5.30306 7.44296 5.26937 7.46043Z" fill="#BFBFBF" stroke="#BFBFBF" stroke-width="0.6" stroke-linejoin="round"/>
</svg>
