<svg width="13" height="13" viewBox="0 0 13 13" fill="none" xmlns="http://www.w3.org/2000/svg">
<path d="M6.68174 10.0599L3.4754 11.7234C3.4325 11.7456 3.37969 11.7289 3.35743 11.686C3.34872 11.6692 3.34569 11.6501 3.34878 11.6314L3.94003 8.06794C3.94779 8.02114 3.93231 7.97349 3.89852 7.9402L1.32564 5.40483C1.29122 5.37091 1.29082 5.31551 1.32474 5.28108C1.33801 5.26761 1.3553 5.2588 1.37401 5.25598L4.94577 4.71712C4.99267 4.71004 5.03321 4.68059 5.05443 4.63817L6.67065 1.40774C6.69227 1.36453 6.74484 1.34702 6.78805 1.36864C6.80497 1.37711 6.81869 1.39083 6.82716 1.40774L8.44338 4.63817C8.4646 4.68059 8.50514 4.71004 8.55204 4.71712L12.1238 5.25598C12.1716 5.26319 12.2045 5.30777 12.1973 5.35555C12.1944 5.37426 12.1856 5.39155 12.1722 5.40483L9.59928 7.9402C9.56549 7.97349 9.55001 8.02114 9.55778 8.06794L10.149 11.6314C10.1569 11.6791 10.1247 11.7241 10.077 11.732C10.0584 11.7351 10.0392 11.7321 10.0224 11.7234L6.81606 10.0599C6.77395 10.0381 6.72385 10.0381 6.68174 10.0599Z" fill="#666666" stroke="#666666" stroke-width="0.75" stroke-linejoin="round"/>
</svg>
