<svg width="21" height="20" viewBox="0 0 21 20" fill="none" xmlns="http://www.w3.org/2000/svg">
<circle cx="10.543" cy="10" r="10" fill="#E58257"/>
<path d="M14.2557 9.11318C14.2025 8.55198 13.6169 8.36678 13.1495 8.16474C12.7532 7.99638 12.3746 7.79434 12.0137 7.56986C11.7534 7.39027 11.6292 7.08722 11.5227 6.81223V6.63825C11.6765 6.61019 11.7239 6.55968 11.7239 6.41377C11.7239 5.62808 11.7239 4.83677 11.7239 4.05108C11.7239 3.98935 11.6706 3.93884 11.6056 3.93884C11.2565 3.93323 10.9016 3.93323 10.5467 3.93323C10.1917 3.93323 9.8368 3.93323 9.47594 3.93323C9.41087 3.93323 9.35763 3.98374 9.35763 4.04547C9.35763 4.83116 9.35763 5.62247 9.35763 6.40816C9.35763 6.55407 9.40496 6.60458 9.55876 6.63264V6.80662C9.45228 7.08161 9.33397 7.39027 9.06777 7.56425C8.70692 7.78873 8.32832 7.99077 7.93197 8.15913C7.46464 8.36116 6.88491 8.54636 6.82576 9.10757C6.79618 9.304 6.81393 9.50042 6.82576 9.69684C6.87308 10.2637 6.91449 10.8249 6.96182 11.3917C7.02689 12.1549 7.09196 12.9182 7.15703 13.687C7.21027 14.3268 7.2576 14.9666 7.31675 15.6064C7.34041 15.8645 7.57112 16.0666 7.84916 16.0666C9.51144 16.0666 9.21566 16.0666 10.5408 16.0666C11.8658 16.0666 11.5701 16.0666 13.2323 16.0666C13.5104 16.0666 13.7411 15.8701 13.7648 15.6064C13.818 14.9666 13.8712 14.3268 13.9245 13.687C13.9895 12.9238 14.0546 12.1605 14.1197 11.3917C14.167 10.8249 14.2084 10.2637 14.2557 9.69684C14.2735 9.50042 14.2912 9.304 14.2557 9.10757V9.11318Z" fill="white"/>
</svg>
