<svg width="20" height="20" viewBox="0 0 20 20" fill="none" xmlns="http://www.w3.org/2000/svg">
<circle cx="10" cy="10" r="10" fill="#E58257"/>
<path fill-rule="evenodd" clip-rule="evenodd" d="M11.1178 4.69075C10.6669 4.52541 10.1823 4.68474 9.90328 5.02499L7.49267 7.96445C7.37291 7.90792 7.22938 7.875 7.07508 7.875H4.80008C4.38127 7.875 4.04175 8.11751 4.04175 8.41667V13.8333C4.04175 14.1325 4.38127 14.375 4.80008 14.375H7.07508C7.42933 14.375 7.72684 14.2015 7.81016 13.967L8.31304 14.2613C8.44014 14.3357 8.58557 14.375 8.7338 14.375H13.6121C14.0048 14.375 14.342 14.1028 14.4155 13.7265L15.4021 8.67394C15.498 8.18233 15.1117 7.72689 14.5987 7.72689H11.9426C12.0108 7.55384 12.0775 7.36141 12.1306 7.16169C12.2198 6.82552 12.2838 6.42029 12.2129 6.03697C12.1504 5.699 12.0536 5.39651 11.847 5.15279C11.6364 4.90427 11.366 4.78178 11.1178 4.69075ZM7.84049 9.24308L10.7519 5.693C10.9373 5.76242 10.9833 5.80302 11.0067 5.83061C11.0348 5.86385 11.0889 5.9505 11.1398 6.22573C11.1699 6.38836 11.1482 6.61946 11.075 6.89494C11.0042 7.16154 10.8975 7.42522 10.8017 7.63315C10.5666 8.14338 10.9245 8.79059 11.5589 8.79059H14.2693L13.3866 13.3113H8.8093L7.84049 12.7443V9.24308ZM6.75008 8.95833H5.12508V13.2917H6.75008V8.95833ZM4.80008 8.95833H4.80075C4.7981 8.95858 4.79781 8.95833 4.80008 8.95833ZM4.80008 13.2917C4.79781 13.2917 4.7981 13.2914 4.80075 13.2917H4.80008Z" fill="white"/>
</svg>
