<svg width="20" height="20" viewBox="0 0 20 20" fill="none" xmlns="http://www.w3.org/2000/svg">
<circle cx="10" cy="10" r="10" fill="#E58257"/>
<path fill-rule="evenodd" clip-rule="evenodd" d="M10.4084 15.5859C10.335 15.6511 10.2608 15.7074 10.1858 15.7654C10.0775 15.849 9.92234 15.849 9.81406 15.7653C9.73915 15.7074 9.66502 15.6511 9.59166 15.5859C6.24452 12.6144 4.5437 10.9479 4.58395 8.63426C4.58395 6.97229 6.06583 5.625 7.89383 5.625C8.69394 5.625 9.42775 5.88312 10 6.31276C10.5723 5.88312 11.3061 5.625 12.1062 5.625C13.9342 5.625 15.4161 6.97229 15.4161 8.63426C15.4563 10.9478 13.7555 12.6144 10.4084 15.5859ZM5.66728 8.64368L5.66712 8.65311C5.65199 9.52255 5.95706 10.3107 6.76396 11.3136C7.47237 12.1941 8.50184 13.2219 9.90975 14.4819C9.96103 14.5277 10.039 14.5277 10.0903 14.4819C11.4982 13.222 12.5276 12.1941 13.2361 11.3136C14.0429 10.3107 14.348 9.52255 14.3329 8.65311L14.3327 8.64368V8.63426C14.3327 7.66536 13.4352 6.70833 12.1062 6.70833C11.5399 6.70833 11.0345 6.89076 10.6504 7.1791L10.0813 7.60639C10.0331 7.64256 9.96687 7.64256 9.9187 7.60639L9.34957 7.1791C8.96552 6.89076 8.46012 6.70833 7.89383 6.70833C6.56476 6.70833 5.66728 7.66536 5.66728 8.63426V8.64368Z" fill="white"/>
</svg>
