<svg width="20" height="20" viewBox="0 0 20 20" fill="none" xmlns="http://www.w3.org/2000/svg">
<circle cx="10" cy="10" r="10" fill="#E58257"/>
<path fill-rule="evenodd" clip-rule="evenodd" d="M10.4084 15.5859C10.335 15.6511 10.2608 15.7074 10.1858 15.7654C10.0775 15.849 9.92234 15.849 9.81406 15.7653C9.73915 15.7074 9.66502 15.6511 9.59166 15.5859C6.24452 12.6144 4.5437 10.9479 4.58395 8.63426C4.58395 6.97229 6.06583 5.625 7.89383 5.625C8.69394 5.625 9.42775 5.88312 10 6.31276C10.5723 5.88312 11.3061 5.625 12.1062 5.625C13.9342 5.625 15.4161 6.97229 15.4161 8.63426C15.4563 10.9478 13.7555 12.6144 10.4084 15.5859Z" fill="white"/>
</svg>
