<svg width="20" height="20" viewBox="0 0 20 20" fill="none" xmlns="http://www.w3.org/2000/svg">
<circle cx="10" cy="10" r="10" fill="#FF6450"/>
<rect width="13" height="13" transform="translate(3 3)" fill="#FF6450"/>
<path d="M9.89796 13.2072L7.11912 14.6489C7.08195 14.6682 7.03618 14.6537 7.01689 14.6165C7.00934 14.6019 7.00671 14.5853 7.00939 14.5691L7.52181 11.4808C7.52853 11.4403 7.51512 11.399 7.48583 11.3701L5.256 9.17277C5.22617 9.14338 5.22582 9.09536 5.25522 9.06553C5.26672 9.05385 5.28171 9.04622 5.29792 9.04378L8.39344 8.57676C8.43409 8.57063 8.46922 8.54511 8.48762 8.50834L9.88834 5.70864C9.90708 5.67118 9.95264 5.65601 9.99009 5.67475C10.0048 5.68208 10.0166 5.69397 10.024 5.70864L11.4247 8.50834C11.4431 8.54511 11.4782 8.57063 11.5189 8.57676L14.6144 9.04378C14.6558 9.05002 14.6843 9.08866 14.6781 9.13007C14.6756 9.14628 14.668 9.16127 14.6563 9.17277L12.4265 11.3701C12.3972 11.399 12.3838 11.4403 12.3905 11.4808L12.9029 14.5691C12.9098 14.6105 12.8819 14.6495 12.8405 14.6564C12.8244 14.659 12.8078 14.6564 12.7932 14.6489L10.0144 13.2072C9.97787 13.1883 9.93445 13.1883 9.89796 13.2072Z" fill="white" stroke="white" stroke-width="0.65" stroke-linejoin="round"/>
</svg>
