<svg width="20" height="20" viewBox="0 0 20 20" fill="none" xmlns="http://www.w3.org/2000/svg">
<circle cx="10" cy="10" r="10" fill="#E58257"/>
<g clip-path="url(#clip0_3275_25796)">
<path d="M9.49651 5.20757L8.06643 8.06514L4.90694 8.54208C4.80331 8.55771 4.70754 8.60651 4.63398 8.68116L4.59096 8.73112C4.44775 8.92218 4.46421 9.19443 4.63901 9.36668L6.91488 11.6087L6.39207 14.762C6.37492 14.8654 6.39173 14.9716 6.43999 15.0646L6.47135 15.1169C6.60797 15.3152 6.87416 15.3855 7.09352 15.2717L9.93002 13.8003L12.7665 15.2717C12.8596 15.3199 12.9657 15.3367 13.0691 15.3196L13.1285 15.3059C13.3594 15.2373 13.5084 15.0058 13.468 14.762L12.9446 11.6087L15.221 9.36668C15.2957 9.29312 15.3445 9.19735 15.3601 9.09372L15.3655 9.03303C15.3715 8.79222 15.1975 8.57895 14.9531 8.54208L11.7931 8.06514L10.3635 5.20757C10.3167 5.11384 10.2406 5.03783 10.1469 4.99094C9.90749 4.87115 9.61629 4.96814 9.49651 5.20757ZM9.93002 6.14607L11.1333 8.55182L11.166 8.60826C11.2495 8.73441 11.3831 8.82054 11.5347 8.84341L14.1937 9.24416L12.2783 11.1322L12.2347 11.1807C12.1406 11.2991 12.0999 11.4528 12.125 11.604L12.5649 14.2565L10.1781 13.0186L10.1185 12.9921C9.97675 12.9392 9.81806 12.948 9.68198 13.0186L7.2946 14.2565L7.73501 11.604L7.74177 11.5392C7.74833 11.388 7.69091 11.2398 7.58171 11.1322L5.66584 9.24416L8.32539 8.84341C8.49863 8.81727 8.64834 8.70851 8.72673 8.55182L9.93002 6.14607Z" fill="white"/>
</g>
<defs>
<clipPath id="clip0_3275_25796">
<rect width="14" height="14" fill="white" transform="translate(3 3)"/>
</clipPath>
</defs>
</svg>
