<svg width="20" height="20" viewBox="0 0 20 20" fill="none" xmlns="http://www.w3.org/2000/svg">
<circle cx="10" cy="10" r="10" fill="#E58257"/>
<path d="M10.1978 13.508L7.41893 14.9496C7.38175 14.9689 7.33598 14.9544 7.31669 14.9173C7.30914 14.9027 7.30651 14.8861 7.3092 14.8699L7.82161 11.7816C7.82834 11.741 7.81492 11.6997 7.78564 11.6709L5.55581 9.47356C5.52598 9.44416 5.52563 9.39615 5.55502 9.36631C5.56653 9.35464 5.58151 9.347 5.59772 9.34456L8.69325 8.87754C8.7339 8.87141 8.76903 8.84589 8.78742 8.80912L10.1881 6.00942C10.2069 5.97196 10.2524 5.95679 10.2899 5.97553C10.3046 5.98287 10.3165 5.99476 10.3238 6.00942L11.7245 8.80912C11.7429 8.84589 11.778 8.87141 11.8187 8.87754L14.9142 9.34456C14.9556 9.3508 14.9841 9.38944 14.9779 9.43085C14.9754 9.44707 14.9678 9.46205 14.9561 9.47356L12.7263 11.6709C12.697 11.6997 12.6836 11.741 12.6903 11.7816L13.2027 14.8699C13.2096 14.9112 13.1817 14.9503 13.1403 14.9571C13.1242 14.9598 13.1076 14.9572 13.093 14.9496L10.3142 13.508C10.2777 13.489 10.2343 13.489 10.1978 13.508Z" fill="white" stroke="white" stroke-width="0.65" stroke-linejoin="round"/>
</svg>
