<svg width="20" height="20" viewBox="0 0 20 20" fill="none" xmlns="http://www.w3.org/2000/svg">
<circle cx="10" cy="10" r="10" fill="#E58257"/>
<path d="M10.0001 4.24088C13.2908 4.24088 15.9584 6.45992 15.9584 9.19724C15.9584 11.9346 13.2908 14.1536 10.0001 14.1536C9.65925 14.1536 9.32509 14.1298 8.9999 14.0841L5.80998 16.1208C5.74694 16.161 5.66324 16.1426 5.623 16.0796C5.60104 16.0452 5.59576 16.0028 5.60861 15.9641C5.84865 15.2411 5.96475 14.5487 5.95693 13.8868C5.95234 13.4988 5.90504 13.1113 5.81504 12.7243C4.71993 11.8258 4.04175 10.5774 4.04175 9.19724C4.04175 6.45992 6.70938 4.24088 10.0001 4.24088ZM10.0001 5.32421C7.26813 5.32421 5.12508 7.10687 5.12508 9.19724C5.12508 10.1551 5.57074 11.0688 6.37832 11.7814L6.50216 11.8867L6.78681 12.1203L6.87021 12.4789C6.95991 12.8646 7.01432 13.2521 7.03315 13.6407L7.04018 13.874L7.03879 14.0505L8.75431 12.9556L9.15073 13.0113C9.42901 13.0504 9.7128 13.0703 10.0001 13.0703C12.732 13.0703 14.8751 11.2876 14.8751 9.19724C14.8751 7.10687 12.732 5.32421 10.0001 5.32421Z" fill="white"/>
</svg>
