<svg width="20" height="20" viewBox="0 0 20 20" fill="none" xmlns="http://www.w3.org/2000/svg">
<circle cx="10" cy="10" r="9.5" fill="white" stroke="#E58257"/>
<path d="M6.37732 15.2465C5.78944 15.3578 5.22271 14.9713 5.11149 14.3835C5.08631 14.2504 5.08631 14.1138 5.11149 13.9807L5.46897 12.0912C5.50944 11.8772 5.61343 11.6805 5.76739 11.5265L12.1143 5.17963C12.444 4.84991 12.9477 4.76817 13.3648 4.9767L13.7816 5.18512C14.3837 5.48615 14.8719 5.97434 15.1729 6.57641L15.3813 6.99325C15.5899 7.41032 15.5081 7.91404 15.1784 8.24376L8.83152 14.5906C8.67756 14.7446 8.48079 14.8486 8.26687 14.8891L6.37732 15.2465ZM11.8162 7.01056L13.3482 8.54263L14.4124 7.47773L14.2039 7.06089C14.0077 6.66848 13.6895 6.35029 13.2971 6.15408L12.8803 5.94566L11.8162 7.01056ZM6.50832 12.4272L7.93161 13.8505L8.06548 13.8246L12.5822 9.30866L11.0501 7.7766L6.53342 12.2925L6.50832 12.4272Z" fill="#E58257"/>
</svg>
